<svg xmlns="http://www.w3.org/2000/svg" width="17" height="2" viewBox="0 0 17 2" fill="none">
<g clip-path="url(#clip0_1593_38538)">
<path d="M9.38672 1C9.38672 1.18542 9.33479 1.36668 9.2375 1.52085C9.14021 1.67502 9.00193 1.79518 8.84014 1.86614C8.67835 1.93709 8.50032 1.95566 8.32857 1.91949C8.15681 1.88331 7.99905 1.79403 7.87522 1.66291C7.75139 1.5318 7.66706 1.36476 7.6329 1.1829C7.59873 1.00104 7.61627 0.81254 7.68328 0.641234C7.7503 0.469928 7.86379 0.323511 8.00939 0.220497C8.155 0.117483 8.32618 0.0625 8.5013 0.0625C8.73613 0.0625 8.96134 0.161272 9.12739 0.337088C9.29344 0.512903 9.38672 0.75136 9.38672 1ZM0.975261 0.0625C0.800142 0.0625 0.628956 0.117483 0.48335 0.220497C0.337744 0.323511 0.224258 0.469928 0.157242 0.641234C0.0902274 0.81254 0.0726932 1.00104 0.106857 1.1829C0.141021 1.36476 0.225349 1.5318 0.349177 1.66291C0.473005 1.79403 0.630771 1.88331 0.802525 1.91949C0.974279 1.95566 1.15231 1.93709 1.3141 1.86614C1.47588 1.79518 1.61417 1.67502 1.71146 1.52085C1.80875 1.36668 1.86068 1.18542 1.86068 1C1.86068 0.75136 1.76739 0.512903 1.60134 0.337088C1.4353 0.161272 1.21009 0.0625 0.975261 0.0625ZM16.0273 0.0625C15.8522 0.0625 15.681 0.117483 15.5354 0.220497C15.3898 0.323511 15.2763 0.469928 15.2093 0.641234C15.1423 0.81254 15.1248 1.00104 15.1589 1.1829C15.1931 1.36476 15.2774 1.5318 15.4013 1.66291C15.5251 1.79403 15.6829 1.88331 15.8546 1.91949C16.0264 1.95566 16.2044 1.93709 16.3662 1.86614C16.528 1.79518 16.6663 1.67502 16.7635 1.52085C16.8608 1.36668 16.9128 1.18542 16.9128 1C16.9128 0.75136 16.8195 0.512903 16.6534 0.337088C16.4874 0.161272 16.2622 0.0625 16.0273 0.0625Z" fill="#292A2B"/>
</g>
<defs>
<clipPath id="clip0_1593_38538">
<rect width="17" height="2" fill="white"/>
</clipPath>
</defs>
</svg>