<svg width="201" height="240" viewBox="0 0 201 240" fill="none" xmlns="http://www.w3.org/2000/svg">
<g opacity="0.3">
<path opacity="0.3" d="M140.53 49.24C135.061 49.2373 129.817 47.0644 125.949 43.1982C122.081 39.3321 119.905 34.0889 119.9 28.62V0H27.7703C24.2356 -2.4406e-07 20.7355 0.696337 17.47 2.04932C14.2044 3.4023 11.2375 5.38537 8.73853 7.88525C6.23957 10.3851 4.25753 13.3529 2.90576 16.6189C1.554 19.8849 0.85904 23.3853 0.860353 26.92V189.13C0.85904 192.665 1.554 196.165 2.90576 199.431C4.25753 202.697 6.23957 205.665 8.73853 208.165C11.2375 210.665 14.2044 212.648 17.47 214.001C20.7355 215.354 24.2356 216.05 27.7703 216.05H138.37C141.905 216.05 145.405 215.354 148.671 214.001C151.936 212.648 154.903 210.665 157.402 208.165C159.901 205.665 161.883 202.697 163.235 199.431C164.586 196.165 165.282 192.665 165.28 189.13V49.25L140.53 49.24Z" fill="#5659E9"/>
</g>
<path d="M165.28 49.24H140.53C135.061 49.2373 129.817 47.0644 125.949 43.1982C122.081 39.3321 119.905 34.0889 119.9 28.62V0L165.28 49.24Z" fill="#5659E9"/>
<path d="M184.8 170.6H59.7603C50.8906 170.6 43.7002 177.79 43.7002 186.66V223.94C43.7002 232.81 50.8906 240 59.7603 240H184.8C193.67 240 200.86 232.81 200.86 223.94V186.66C200.86 177.79 193.67 170.6 184.8 170.6Z" fill="#5659E9"/>
<path d="M79.4602 213.37V220.65H71.9302V213.37H79.4602Z" fill="white"/>
<path d="M105.6 207.8C106.655 209.114 107.217 210.755 107.19 212.44C107.242 213.569 107.038 214.696 106.593 215.735C106.148 216.774 105.474 217.699 104.62 218.44C102.9 219.88 100.44 220.61 97.2402 220.61H83.2402V190.54H96.8901C99.9501 190.54 102.317 191.207 103.99 192.54C104.827 193.226 105.49 194.1 105.926 195.09C106.362 196.08 106.559 197.16 106.5 198.24C106.563 199.872 106.054 201.474 105.06 202.77C104.108 203.972 102.769 204.806 101.27 205.13C102.977 205.498 104.505 206.44 105.6 207.8ZM90.5203 202.87H95.2803C97.8069 202.87 99.0703 201.79 99.0703 199.63C99.0703 197.47 97.7802 196.393 95.2002 196.4H90.5203V202.87ZM99.7502 211.42C99.7736 210.946 99.6905 210.473 99.5071 210.035C99.3237 209.597 99.0445 209.206 98.6902 208.89C97.833 208.233 96.7682 207.907 95.6902 207.97H90.5403V214.73H95.7302C98.4102 214.73 99.7502 213.627 99.7502 211.42Z" fill="white"/>
<path d="M144.83 190.79V220.65H137.56V202L131.1 220.68H124.8L118.29 201.96V220.68H111V190.82H119.89L128.01 211.62L136.01 190.82L144.83 190.79Z" fill="white"/>
<path d="M157.13 210.1V220.65H149.85V190.58H161.63C165.21 190.58 167.934 191.463 169.8 193.23C170.746 194.161 171.486 195.28 171.97 196.516C172.454 197.751 172.672 199.075 172.61 200.4C172.642 202.149 172.207 203.875 171.35 205.4C170.485 206.895 169.188 208.094 167.63 208.84C165.759 209.732 163.702 210.164 161.63 210.1H157.13ZM165.21 200.4C165.21 197.733 163.75 196.4 160.83 196.4H157.13V204.23H160.83C163.75 204.257 165.21 202.98 165.21 200.4Z" fill="white"/>
<path d="M105.16 146.41H61.0002C56.6762 146.405 52.5307 144.685 49.4731 141.627C46.4156 138.57 44.6955 134.424 44.6902 130.1V85.9302C44.6955 81.6061 46.4156 77.4606 49.4731 74.4031C52.5307 71.3455 56.6762 69.6254 61.0002 69.6201H105.17C109.493 69.6254 113.638 71.3458 116.694 74.4037C119.75 77.4615 121.468 81.607 121.47 85.9302V130.1C121.468 134.425 119.748 138.572 116.69 141.63C113.632 144.688 109.485 146.408 105.16 146.41ZM61.0002 76.8301C58.5876 76.8327 56.2746 77.7924 54.5686 79.4984C52.8626 81.2044 51.9028 83.5175 51.9001 85.9302V130.1C51.9028 132.513 52.8626 134.826 54.5686 136.532C56.2746 138.238 58.5876 139.197 61.0002 139.2H105.17C107.581 139.195 109.892 138.234 111.595 136.528C113.299 134.823 114.258 132.511 114.26 130.1V85.9302C114.258 83.5192 113.299 81.2077 111.595 79.502C109.892 77.7962 107.581 76.8354 105.17 76.8301H61.0002Z" fill="#5659E9"/>
<path d="M117.86 121.7V130.1C117.858 133.467 116.519 136.696 114.138 139.077C111.757 141.458 108.528 142.797 105.16 142.8H61.0002C57.6311 142.8 54.3997 141.462 52.0164 139.081C49.6331 136.699 48.2929 133.469 48.2903 130.1V116C55.3703 114.48 66.1402 114 79.2102 119.22L87.3103 111.5L92.8303 125.5C92.8303 125.5 94.3103 120.35 99.0903 121.08C103.87 121.81 111.61 124.4 114.92 122.19C115.809 121.678 116.853 121.504 117.86 121.7Z" fill="#5659E9"/>
<path d="M102.39 94.9498C105.102 94.9498 107.3 92.7516 107.3 90.0399C107.3 87.3282 105.102 85.1299 102.39 85.1299C99.6784 85.1299 97.4802 87.3282 97.4802 90.0399C97.4802 92.7516 99.6784 94.9498 102.39 94.9498Z" fill="#5659E9"/>
</svg>
