<?xml version="1.0" encoding="utf-8"?>
<!-- Generator: Adobe Illustrator 24.3.0, SVG Export Plug-In . SVG Version: 6.00 Build 0)  -->
<svg version="1.1" id="Capa_1" xmlns="http://www.w3.org/2000/svg" xmlns:xlink="http://www.w3.org/1999/xlink" x="0px" y="0px"
	 viewBox="0 0 595.28 487.73" style="enable-background:new 0 0 595.28 487.73;" xml:space="preserve">
<path d="M95.21,1.29L8.33,94.8h147.42c13.22,0.17,22.31,4.23,27.05,6.84c13.97,7.7,20.85,19.76,27.15,30.83
	c5.54,9.72,8.69,18.49,10.51,24.56c-36.72,80.09-73.45,160.18-110.17,240.27h102.8l58.98-129.12l86.82,186.95
	c2.15,4.58,8.3,16.1,21.79,24.33c14.37,8.76,28.36,8.48,33.33,8.15c37.33,0,74.66,0,111.99,0l60.68-93.54H468.9
	c-9.6,0.12-16.72-2.11-21.03-3.89c-18.52-7.63-27.49-24.29-31.75-32.21c-3.07-5.7-4.97-10.77-6.13-14.37
	C336.18,181.71,280.56,63.42,266.11,33.77c-2.98-6.12-8.27-14.82-17.51-21.87C231.06-1.48,210.53-0.34,189.7,0.4
	C168.35,1.16,137.09,1.85,95.21,1.29z"/>
</svg>
