<svg width="251" height="251" viewBox="0 0 251 251" fill="none" xmlns="http://www.w3.org/2000/svg">
<rect width="250.664" height="250.664" rx="16" fill="#72B3FF" fill-opacity="0.2"/>
<path d="M193.757 103.254L129.114 68.4326C128.49 68.0973 127.795 67.9219 127.088 67.9219C126.382 67.9219 125.686 68.0973 125.063 68.4326L60.4194 103.254C59.7299 103.625 59.1533 104.179 58.7512 104.855C58.3491 105.532 58.1367 106.306 58.1367 107.095C58.1367 107.884 58.3491 108.659 58.7512 109.335C59.1533 110.012 59.7299 110.565 60.4194 110.936L75.3736 118.994V145.339C75.3692 147.477 76.1482 149.541 77.5607 151.133C84.6177 159.071 100.428 172.385 127.088 172.385C135.928 172.459 144.702 170.842 152.946 167.619V185.443C152.946 186.597 153.4 187.705 154.208 188.521C155.016 189.337 156.112 189.796 157.255 189.796C158.398 189.796 159.495 189.337 160.303 188.521C161.111 187.705 161.565 186.597 161.565 185.443V163.413C167.185 160.137 172.263 155.993 176.616 151.133C178.029 149.541 178.808 147.477 178.803 145.339V118.994L193.757 110.936C194.447 110.565 195.024 110.012 195.426 109.335C195.828 108.659 196.04 107.884 196.04 107.095C196.04 106.306 195.828 105.532 195.426 104.855C195.024 104.179 194.447 103.625 193.757 103.254ZM127.088 163.68C103.779 163.68 90.0693 152.178 83.9928 145.339V123.635L125.063 145.758C125.686 146.093 126.382 146.268 127.088 146.268C127.795 146.268 128.49 146.093 129.114 145.758L152.946 132.923V158.136C146.158 161.335 137.604 163.68 127.088 163.68ZM170.184 145.317C167.601 148.212 164.71 150.812 161.565 153.07V128.276L170.184 123.635V145.317ZM159.41 119.576L159.292 119.506L129.125 103.254C128.118 102.735 126.95 102.636 125.872 102.978C124.794 103.32 123.892 104.077 123.361 105.084C122.829 106.092 122.711 107.27 123.032 108.364C123.352 109.459 124.085 110.383 125.074 110.936L150.252 124.506L127.088 136.982L71.6028 107.095L127.088 77.2086L182.574 107.095L159.41 119.576Z" fill="#72B3FF"/>
</svg>
