<svg width="251" height="251" viewBox="0 0 251 251" fill="none" xmlns="http://www.w3.org/2000/svg">
<rect width="250.664" height="250.664" rx="16" fill="#916AFF" fill-opacity="0.2"/>
<path d="M128.177 62.4609C115.213 62.4609 102.54 66.2724 91.7606 73.4134C80.9812 80.5544 72.5797 90.7042 67.6185 102.579C62.6573 114.454 61.3592 127.521 63.8884 140.128C66.4176 152.734 72.6605 164.314 81.8276 173.403C90.9948 182.492 102.674 188.681 115.39 191.189C128.105 193.696 141.284 192.409 153.262 187.491C165.239 182.572 175.476 174.242 182.679 163.555C189.882 152.867 193.726 140.303 193.726 127.449C193.708 110.219 186.796 93.6994 174.507 81.5157C162.218 69.3319 145.556 62.4791 128.177 62.4609ZM128.177 157.444C122.194 157.444 116.345 155.685 111.37 152.389C106.395 149.093 102.517 144.408 100.227 138.928C97.9374 133.447 97.3383 127.416 98.5056 121.598C99.6729 115.779 102.554 110.435 106.785 106.24C111.016 102.045 116.407 99.1883 122.275 98.031C128.144 96.8736 134.227 97.4676 139.755 99.7378C145.283 102.008 150.008 105.853 153.332 110.785C156.656 115.718 158.431 121.517 158.431 127.449C158.422 135.402 155.232 143.026 149.56 148.649C143.889 154.273 136.199 157.436 128.177 157.444ZM152.89 95.8737C147.192 91.4575 140.395 88.6506 133.22 87.7501V72.6903C144.409 73.6897 155.025 78.0497 163.649 85.1881L152.89 95.8737ZM123.135 87.7814C115.96 88.6819 109.163 91.4887 103.464 95.9049L92.7056 85.2068C101.33 78.0684 111.946 73.7085 123.135 72.7091V87.7814ZM96.3297 102.947C91.8754 108.597 89.0444 115.336 88.1361 122.45H72.9465C73.9545 111.356 78.3521 100.831 85.552 92.2806L96.3297 102.947ZM88.1676 132.448C89.0759 139.563 91.9069 146.301 96.3612 151.951L85.5709 162.618C78.371 154.067 73.9734 143.542 72.9654 132.448H88.1676ZM103.464 159.025C109.166 163.43 115.963 166.226 123.135 167.117V182.208C111.946 181.209 101.33 176.849 92.7056 169.71L103.464 159.025ZM133.22 167.117C140.392 166.226 147.188 163.43 152.89 159.025L163.649 169.692C155.025 176.83 144.409 181.19 133.22 182.189V167.117ZM160.025 151.951C164.468 146.298 167.288 139.559 168.187 132.448H183.408C182.4 143.542 178.003 154.067 170.803 162.618L160.025 151.951ZM168.187 122.45C167.288 115.339 164.468 108.601 160.025 102.947L170.784 92.2806C177.984 100.831 182.381 111.356 183.389 122.45H168.187Z" fill="#916AFF"/>
</svg>
