<svg width="251" height="251" viewBox="0 0 251 251" fill="none" xmlns="http://www.w3.org/2000/svg">
<rect width="250.664" height="250.664" rx="16" fill="#48FF50" fill-opacity="0.2"/>
<path d="M94.2021 122.808C94.2333 133.999 91.595 145.043 86.4979 155.057C86.2546 155.576 85.9074 156.042 85.4769 156.427C85.0464 156.813 84.5413 157.109 83.9917 157.299C83.442 157.49 82.859 157.57 82.2772 157.535C81.6954 157.5 81.1266 157.351 80.6047 157.097C80.0828 156.842 79.6183 156.488 79.2388 156.054C78.8593 155.62 78.5725 155.116 78.3955 154.572C78.2185 154.028 78.1548 153.454 78.2082 152.885C78.2617 152.316 78.4312 151.763 78.7067 151.26C83.2008 142.424 85.526 132.681 85.4968 122.808C85.4866 117.05 86.8023 111.365 89.3459 106.176C91.8894 100.986 95.5953 96.4261 100.187 92.8359C101.088 92.1287 102.239 91.8013 103.386 91.9259C104.534 92.0504 105.584 92.6166 106.305 93.4999C107.027 94.3832 107.361 95.5113 107.234 96.6359C107.107 97.7606 106.529 98.7897 105.628 99.4969C102.056 102.288 99.1728 105.835 97.1944 109.871C95.2159 113.908 94.1931 118.33 94.2021 122.808ZM124.671 118.541C123.516 118.541 122.409 118.991 121.593 119.791C120.777 120.591 120.318 121.676 120.318 122.808C120.317 139.43 116.011 155.78 107.804 170.326C107.244 171.316 107.109 172.483 107.427 173.572C107.745 174.66 108.492 175.579 109.502 176.128C110.512 176.677 111.703 176.81 112.813 176.498C113.923 176.186 114.861 175.454 115.421 174.464C124.342 158.651 129.022 140.877 129.023 122.808C129.023 121.676 128.565 120.591 127.749 119.791C126.932 118.991 125.825 118.541 124.671 118.541ZM124.671 101.476C118.899 101.476 113.363 103.723 109.282 107.724C105.2 111.724 102.907 117.15 102.907 122.808C102.907 123.939 103.366 125.025 104.182 125.825C104.999 126.625 106.106 127.074 107.26 127.074C108.415 127.074 109.522 126.625 110.338 125.825C111.154 125.025 111.613 123.939 111.613 122.808C111.613 119.413 112.989 116.158 115.437 113.757C117.886 111.357 121.208 110.008 124.671 110.008C128.134 110.008 131.455 111.357 133.904 113.757C136.353 116.158 137.729 119.413 137.729 122.808C137.774 139.772 133.962 156.533 126.57 171.872C126.326 172.38 126.186 172.931 126.159 173.492C126.132 174.053 126.218 174.613 126.412 175.142C126.606 175.67 126.904 176.156 127.29 176.571C127.675 176.987 128.141 177.324 128.659 177.563C129.177 177.802 129.739 177.939 130.311 177.965C130.883 177.992 131.455 177.907 131.994 177.717C132.533 177.527 133.029 177.235 133.453 176.857C133.877 176.479 134.22 176.023 134.464 175.515C142.399 159.035 146.488 141.03 146.434 122.808C146.434 117.15 144.141 111.724 140.06 107.724C135.978 103.723 130.443 101.476 124.671 101.476ZM124.671 67.3438C109.668 67.3593 95.2851 73.2078 84.6769 83.606C74.0687 94.0041 68.102 108.103 68.0862 122.808C68.0942 128.136 67.1742 133.426 65.3657 138.45C64.9812 139.517 65.0449 140.69 65.5428 141.711C66.0407 142.733 66.9321 143.518 68.0209 143.895C69.1096 144.272 70.3065 144.209 71.3483 143.721C72.3901 143.233 73.1914 142.36 73.576 141.292C75.7113 135.355 76.7987 129.104 76.7915 122.808C76.7915 110.361 81.8359 98.4238 90.815 89.6225C99.7941 80.8212 111.972 75.8767 124.671 75.8767C137.369 75.8767 149.547 80.8212 158.527 89.6225C167.506 98.4238 172.55 110.361 172.55 122.808C172.552 132.556 171.588 142.281 169.672 151.847C169.561 152.396 169.562 152.962 169.674 153.512C169.786 154.061 170.008 154.584 170.326 155.049C170.645 155.515 171.053 155.914 171.529 156.225C172.005 156.535 172.539 156.751 173.1 156.86C173.377 156.912 173.66 156.939 173.943 156.94C174.95 156.939 175.926 156.595 176.704 155.968C177.482 155.341 178.013 154.468 178.209 153.5C180.235 143.39 181.256 133.111 181.255 122.808C181.238 108.103 175.271 94.0054 164.663 83.6075C154.055 73.2097 139.673 67.3607 124.671 67.3438ZM106.39 135.698C105.261 135.478 104.089 135.705 103.13 136.33C102.172 136.954 101.505 137.926 101.275 139.031C99.5091 147.551 96.3469 155.735 91.9115 163.265C91.3343 164.245 91.178 165.41 91.477 166.503C91.776 167.596 92.5057 168.528 93.5057 169.094C94.5057 169.66 95.694 169.813 96.8093 169.52C97.9245 169.227 98.8753 168.511 99.4525 167.531C104.354 159.205 107.845 150.154 109.79 140.732C109.904 140.183 109.907 139.617 109.798 139.066C109.689 138.516 109.47 137.992 109.155 137.524C108.839 137.057 108.432 136.655 107.958 136.341C107.483 136.028 106.95 135.809 106.39 135.698ZM124.671 84.4096C123.034 84.41 121.398 84.5097 119.774 84.7083C118.65 84.8737 117.637 85.4634 116.95 86.3515C116.264 87.2396 115.96 88.3556 116.102 89.4609C116.244 90.5663 116.821 91.5733 117.711 92.2667C118.6 92.9601 119.731 93.285 120.862 93.1719C125.15 92.6493 129.503 93.0253 133.631 94.2752C137.76 95.525 141.571 97.6202 144.811 100.422C148.052 103.224 150.648 106.668 152.429 110.527C154.209 114.387 155.133 118.572 155.139 122.808C155.138 128.335 154.789 133.856 154.095 139.34C154.018 139.898 154.055 140.465 154.204 141.009C154.352 141.553 154.608 142.062 154.958 142.508C155.308 142.955 155.745 143.328 156.243 143.608C156.741 143.889 157.29 144.069 157.86 144.14C158.04 144.162 158.222 144.172 158.404 144.172C159.462 144.17 160.484 143.79 161.277 143.103C162.07 142.415 162.581 141.469 162.713 140.439C163.447 134.6 163.81 128.723 163.801 122.84C163.798 112.661 159.677 102.899 152.342 95.6951C145.006 88.4907 135.055 84.4322 124.671 84.4096ZM156.189 152.806C155.636 152.666 155.059 152.634 154.493 152.712C153.926 152.79 153.381 152.977 152.889 153.262C152.396 153.547 151.965 153.924 151.622 154.372C151.278 154.82 151.027 155.33 150.885 155.873C150.09 158.908 149.171 161.953 148.164 164.939C147.796 166.009 147.875 167.179 148.385 168.192C148.895 169.204 149.794 169.977 150.885 170.342C151.331 170.491 151.8 170.566 152.272 170.566C153.184 170.565 154.073 170.284 154.813 169.761C155.553 169.239 156.107 168.501 156.396 167.654C157.484 164.497 158.458 161.254 159.307 158.028C159.453 157.485 159.488 156.919 159.411 156.363C159.333 155.807 159.144 155.271 158.855 154.787C158.566 154.302 158.182 153.878 157.726 153.539C157.269 153.201 156.749 152.953 156.195 152.812L156.189 152.806Z" fill="#48FF50"/>
</svg>
