<svg width="251" height="251" viewBox="0 0 251 251" fill="none" xmlns="http://www.w3.org/2000/svg">
<rect width="250.664" height="250.664" rx="16" fill="#B352FF" fill-opacity="0.2"/>
<path d="M198.654 124.876C198.684 135.857 194.988 146.547 188.13 155.316C187.752 155.8 187.279 156.208 186.738 156.517C186.197 156.825 185.598 157.027 184.976 157.112C184.353 157.197 183.719 157.164 183.11 157.013C182.502 156.862 181.93 156.596 181.427 156.232C180.925 155.868 180.501 155.412 180.182 154.891C179.862 154.369 179.652 153.791 179.563 153.191C179.475 152.591 179.51 151.981 179.667 151.394C179.824 150.807 180.099 150.255 180.476 149.771C186.09 142.602 189.114 133.858 189.087 124.876C189.087 113.869 184.551 103.313 176.477 95.5302C168.403 87.7472 157.453 83.3748 146.034 83.3748C134.616 83.3748 123.665 87.7472 115.592 95.5302C107.518 103.313 102.982 113.869 102.982 124.876C102.982 126.099 102.478 127.272 101.581 128.137C100.684 129.001 99.4668 129.487 98.1981 129.487C96.9294 129.487 95.7127 129.001 94.8156 128.137C93.9184 127.272 93.4145 126.099 93.4145 124.876C93.4121 120.222 94.0741 115.591 95.3817 111.111C94.73 111.042 94.0722 111.042 93.4145 111.042C85.8023 111.042 78.5019 113.957 73.1193 119.146C67.7367 124.334 64.7127 131.372 64.7127 138.71C64.7127 146.048 67.7367 153.085 73.1193 158.273C78.5019 163.462 85.8023 166.377 93.4145 166.377H107.765C109.034 166.377 110.251 166.863 111.148 167.728C112.045 168.592 112.549 169.765 112.549 170.988C112.549 172.211 112.045 173.384 111.148 174.249C110.251 175.114 109.034 175.6 107.765 175.6H93.4145C88.1535 175.601 82.9488 174.556 78.1255 172.531C73.3021 170.506 68.9637 167.545 65.3811 163.831C61.7985 160.117 59.0488 155.731 57.3036 150.947C55.5585 146.163 54.8553 141.083 55.2382 136.025C55.621 130.967 57.0816 126.04 59.5287 121.55C61.9759 117.061 65.3569 113.106 69.4608 109.933C73.5647 106.76 78.3032 104.437 83.3804 103.108C88.4576 101.78 93.7644 101.474 98.9694 102.212C104.27 91.993 112.993 83.7983 123.728 78.9551C134.462 74.1119 146.578 72.9038 158.114 75.5265C169.649 78.1492 179.928 84.4491 187.286 93.4057C194.644 102.362 198.65 113.451 198.654 124.876ZM144.635 121.613C144.191 121.185 143.663 120.845 143.082 120.613C142.502 120.381 141.879 120.261 141.251 120.261C140.622 120.261 140 120.381 139.419 120.613C138.838 120.845 138.311 121.185 137.866 121.613L118.732 140.058C118.287 140.487 117.935 140.995 117.694 141.555C117.454 142.115 117.33 142.715 117.33 143.321C117.33 143.927 117.454 144.527 117.694 145.087C117.935 145.646 118.287 146.155 118.732 146.583C119.629 147.449 120.847 147.935 122.116 147.935C122.745 147.935 123.367 147.815 123.948 147.583C124.529 147.352 125.056 147.012 125.501 146.583L136.467 136.006V170.988C136.467 172.211 136.971 173.384 137.868 174.249C138.765 175.114 139.982 175.6 141.251 175.6C142.519 175.6 143.736 175.114 144.633 174.249C145.53 173.384 146.034 172.211 146.034 170.988V136.006L157.001 146.583C157.445 147.012 157.973 147.352 158.554 147.583C159.134 147.815 159.757 147.935 160.385 147.935C161.014 147.935 161.636 147.815 162.217 147.583C162.797 147.352 163.325 147.012 163.77 146.583C164.214 146.155 164.567 145.646 164.807 145.087C165.048 144.527 165.171 143.927 165.171 143.321C165.171 142.715 165.048 142.115 164.807 141.555C164.567 140.995 164.214 140.487 163.77 140.058L144.635 121.613Z" fill="#B352FF"/>
</svg>
