<svg width="251" height="251" viewBox="0 0 251 251" fill="none" xmlns="http://www.w3.org/2000/svg">
<rect width="250.664" height="250.664" rx="16" fill="#A5FF7A" fill-opacity="0.2"/>
<path d="M129.911 63.3359C115.058 63.3527 100.817 69.4309 90.3139 80.237C79.8108 91.043 73.903 105.694 73.8867 120.976V169.585C73.8897 171.979 74.8156 174.275 76.4613 175.968C78.1071 177.661 80.3383 178.614 82.6657 178.617H129.911C144.77 178.617 159.02 172.544 169.526 161.734C180.033 150.925 185.935 136.264 185.935 120.976C185.935 105.689 180.033 91.0281 169.526 80.2184C159.02 69.4088 144.77 63.3359 129.911 63.3359ZM129.911 169.394H82.8506V120.976C82.8506 111.4 85.6107 102.039 90.7817 94.0768C95.9528 86.1145 103.303 79.9087 111.902 76.244C120.501 72.5794 129.963 71.6205 139.092 73.4887C148.221 75.357 156.606 79.9683 163.188 86.7397C169.769 93.5111 174.251 102.138 176.067 111.531C177.883 120.923 176.951 130.658 173.389 139.505C169.827 148.352 163.796 155.914 156.056 161.234C148.317 166.555 139.219 169.394 129.911 169.394Z" fill="#A5FF7A"/>
</svg>
