<svg width="251" height="251" viewBox="0 0 251 251" fill="none" xmlns="http://www.w3.org/2000/svg">
<rect width="250.664" height="250.664" rx="16" fill="#1AFFD6" fill-opacity="0.2"/>
<path d="M177.444 75.9844H73.1529C70.6384 75.9844 68.2268 76.9651 66.4488 78.7108C64.6708 80.4565 63.6719 82.8242 63.6719 85.293L63.6719 159.762C63.6719 162.231 64.6708 164.599 66.4488 166.345C68.2268 168.09 70.6384 169.071 73.1529 169.071H177.444C179.959 169.071 182.371 168.09 184.149 166.345C185.927 164.599 186.925 162.231 186.925 159.762V85.293C186.925 82.8242 185.927 80.4565 184.149 78.7108C182.371 76.9651 179.959 75.9844 177.444 75.9844ZM111.077 131.836V113.219H139.52V131.836H111.077ZM139.52 141.145V159.762H111.077V141.145H139.52ZM73.1529 113.219H101.596V131.836H73.1529V113.219ZM111.077 103.91V85.293H139.52V103.91H111.077ZM149.001 113.219H177.444V131.836H149.001V113.219ZM177.444 103.91H149.001V85.293H177.444V103.91ZM101.596 85.293V103.91H73.1529V85.293H101.596ZM73.1529 141.145H101.596V159.762H73.1529V141.145ZM177.444 159.762H149.001V141.145H177.444V159.762Z" fill="#1AFFD6"/>
</svg>
