<svg width="251" height="251" viewBox="0 0 251 251" fill="none" xmlns="http://www.w3.org/2000/svg">
<rect width="250.664" height="250.664" rx="16" fill="#E7EC00" fill-opacity="0.2"/>
<path d="M115.919 114.29C115.919 113.032 116.419 111.827 117.308 110.938C118.197 110.049 119.402 109.549 120.66 109.549H158.584C159.841 109.549 161.047 110.049 161.936 110.938C162.825 111.827 163.324 113.032 163.324 114.29C163.324 115.547 162.825 116.753 161.936 117.642C161.047 118.531 159.841 119.03 158.584 119.03H120.66C119.402 119.03 118.197 118.531 117.308 117.642C116.419 116.753 115.919 115.547 115.919 114.29ZM120.66 137.992H158.584C159.841 137.992 161.047 137.493 161.936 136.604C162.825 135.715 163.324 134.509 163.324 133.252C163.324 131.995 162.825 130.789 161.936 129.9C161.047 129.011 159.841 128.511 158.584 128.511H120.66C119.402 128.511 118.197 129.011 117.308 129.9C116.419 130.789 115.919 131.995 115.919 133.252C115.919 134.509 116.419 135.715 117.308 136.604C118.197 137.493 119.402 137.992 120.66 137.992ZM196.508 166.435C196.508 171.465 194.51 176.288 190.954 179.844C187.398 183.4 182.575 185.398 177.546 185.398H111.179C106.15 185.398 101.327 183.4 97.7704 179.844C94.2144 176.288 92.2166 171.465 92.2166 166.435V90.5871C92.2166 88.0726 91.2177 85.661 89.4396 83.883C87.6616 82.1049 85.2501 81.106 82.7355 81.106C80.221 81.106 77.8095 82.1049 76.0314 83.883C74.2534 85.661 73.2545 88.0726 73.2545 90.5871C73.2545 93.9884 76.1166 96.2876 76.1462 96.3113C76.9308 96.915 77.5066 97.7493 77.793 98.6969C78.0793 99.6446 78.0618 100.658 77.7429 101.595C77.4239 102.533 76.8196 103.346 76.0146 103.923C75.2097 104.499 74.2445 104.809 73.2545 104.809C72.2293 104.81 71.232 104.475 70.4161 103.855C69.7287 103.351 63.7734 98.6519 63.7734 90.5871C63.7734 85.558 65.7712 80.7349 69.3273 77.1789C72.8834 73.6228 77.7065 71.625 82.7355 71.625H163.324C168.353 71.625 173.177 73.6228 176.733 77.1789C180.289 80.7349 182.287 85.558 182.287 90.5871V152.214H187.027C188.053 152.214 189.051 152.547 189.871 153.162C190.582 153.672 196.508 158.371 196.508 166.435ZM116.073 155.461C116.397 154.505 117.015 153.676 117.839 153.093C118.663 152.509 119.65 152.202 120.66 152.214H172.805V90.5871C172.805 88.0726 171.807 85.661 170.029 83.883C168.25 82.1049 165.839 81.106 163.324 81.106H99.1437C100.82 83.9842 101.702 87.2562 101.698 90.5871V166.435C101.698 168.95 102.697 171.362 104.475 173.14C106.253 174.918 108.664 175.917 111.179 175.917C113.693 175.917 116.105 174.918 117.883 173.14C119.661 171.362 120.66 168.95 120.66 166.435C120.66 163.034 117.798 160.735 117.768 160.711C116.96 160.133 116.359 159.311 116.054 158.366C115.749 157.421 115.756 156.402 116.073 155.461ZM187.027 166.435C186.968 164.679 186.29 163 185.113 161.695H129.412C129.888 163.23 130.13 164.828 130.129 166.435C130.133 169.765 129.256 173.036 127.587 175.917H177.546C180.061 175.917 182.472 174.918 184.25 173.14C186.028 171.362 187.027 168.95 187.027 166.435Z" fill="#E7EC00"/>
</svg>
