<svg width="251" height="251" viewBox="0 0 251 251" fill="none" xmlns="http://www.w3.org/2000/svg">
<rect width="250.664" height="250.664" rx="16" fill="#0000FF" fill-opacity="0.2"/>
<path d="M181.811 110.046C181.814 108.959 181.608 107.882 181.205 106.878C180.801 105.874 180.209 104.963 179.461 104.197L145.053 68.6742C144.309 67.9056 143.425 67.296 142.453 66.88C141.48 66.4641 140.437 66.25 139.385 66.25C138.332 66.25 137.289 66.4641 136.317 66.88C135.344 67.296 134.46 67.9056 133.716 68.6742L119.473 83.3767L90.4156 94.635C89.095 95.1434 87.927 96.0009 87.0284 97.1218C86.1298 98.2427 85.5323 99.5876 85.2955 101.022L73.6526 173.138C73.5565 173.731 73.5867 174.338 73.7411 174.918C73.8955 175.497 74.1704 176.035 74.5466 176.494C74.9228 176.953 75.3914 177.321 75.9196 177.574C76.4478 177.827 77.0231 177.958 77.6054 177.958C77.8269 177.957 78.048 177.938 78.2667 177.901L148.124 165.882C149.512 165.643 150.814 165.032 151.9 164.108C152.987 163.185 153.818 161.983 154.312 160.623L165.218 130.629L179.461 115.9C180.209 115.134 180.802 114.222 181.205 113.217C181.609 112.212 181.814 111.134 181.811 110.046ZM146.807 157.722L89.2884 167.615L113.02 143.118C115.984 144.771 119.426 145.268 122.716 144.518C126.006 143.768 128.924 141.82 130.937 139.031C132.951 136.243 133.924 132.799 133.68 129.33C133.436 125.861 131.991 122.599 129.609 120.14C127.226 117.681 124.066 116.189 120.705 115.937C117.345 115.685 114.009 116.69 111.307 118.768C108.606 120.846 106.719 123.859 105.992 127.255C105.265 130.651 105.747 134.204 107.349 137.264L83.6172 161.771L93.2011 102.382L120.69 91.7441L157.112 129.346L146.807 157.722ZM113.676 130.38C113.676 129.153 114.029 127.953 114.69 126.933C115.35 125.912 116.289 125.117 117.388 124.647C118.486 124.177 119.695 124.054 120.861 124.294C122.027 124.533 123.099 125.124 123.939 125.992C124.78 126.86 125.353 127.966 125.585 129.17C125.817 130.373 125.698 131.621 125.243 132.755C124.787 133.889 124.017 134.858 123.028 135.54C122.04 136.222 120.877 136.586 119.688 136.586C118.094 136.586 116.565 135.932 115.437 134.768C114.31 133.605 113.676 132.026 113.676 130.38ZM161.771 122.458L127.358 86.9398L139.382 74.5283L173.795 110.046L161.771 122.458Z" fill="#0000FF"/>
</svg>
