<svg width="19" height="14" viewBox="0 0 19 14" fill="grey" xmlns="http://www.w3.org/2000/svg">
<g id="Group">
<g id="Group_2">
<path id="Vector" d="M13.3906 7.9375C14.5323 8.7125 15.3323 9.7625 15.3323 11.1625V13.6625H18.6656V11.1625C18.6656 9.34583 15.6906 8.27083 13.3906 7.9375Z" fill="grey"/>
<path id="Vector_2" d="M11.999 6.99479C13.8406 6.99479 15.3323 5.50312 15.3323 3.66146C15.3323 1.81979 13.8406 0.328125 11.999 0.328125C11.6073 0.328125 11.2406 0.411458 10.8906 0.528125C11.5823 1.38646 11.999 2.47812 11.999 3.66146C11.999 4.84479 11.5823 5.93646 10.8906 6.79479C11.2406 6.91146 11.6073 6.99479 11.999 6.99479Z" fill="grey"/>
<path id="Vector_3" d="M6.99935 6.99479C8.84102 6.99479 10.3327 5.50312 10.3327 3.66146C10.3327 1.81979 8.84102 0.328125 6.99935 0.328125C5.15768 0.328125 3.66602 1.81979 3.66602 3.66146C3.66602 5.50312 5.15768 6.99479 6.99935 6.99479ZM6.99935 1.99479C7.91602 1.99479 8.66602 2.74479 8.66602 3.66146C8.66602 4.57812 7.91602 5.32812 6.99935 5.32812C6.08268 5.32812 5.33268 4.57812 5.33268 3.66146C5.33268 2.74479 6.08268 1.99479 6.99935 1.99479Z" fill="grey"/>
<path id="Vector_4" d="M6.9987 7.82812C4.7737 7.82812 0.332031 8.94479 0.332031 11.1615V13.6615H13.6654V11.1615C13.6654 8.94479 9.2237 7.82812 6.9987 7.82812ZM11.9987 11.9948H1.9987V11.1698C2.16536 10.5698 4.7487 9.49479 6.9987 9.49479C9.2487 9.49479 11.832 10.5698 11.9987 11.1615V11.9948Z" fill="grey"/>
</g>
</g>
</svg>
