<svg width="29" height="23" viewBox="0 0 29 23" fill="none" xmlns="http://www.w3.org/2000/svg">
<path d="M23.8178 19.9431H5.05226C4.6553 19.9431 4.33051 20.2637 4.33051 20.6554V22.0799C4.33051 22.4717 4.6553 22.7922 5.05226 22.7922H23.8178C24.2148 22.7922 24.5396 22.4717 24.5396 22.0799V20.6554C24.5396 20.2637 24.2148 19.9431 23.8178 19.9431ZM26.7048 5.69804C25.5094 5.69804 24.5396 6.65513 24.5396 7.83481C24.5396 8.15087 24.6117 8.44468 24.738 8.71622L21.4721 10.6482C20.7774 11.0578 19.8798 10.8263 19.4783 10.1318L15.8019 3.78386C16.2845 3.39212 16.6003 2.8045 16.6003 2.13677C16.6003 0.957093 15.6304 0 14.435 0C13.2396 0 12.2698 0.957093 12.2698 2.13677C12.2698 2.8045 12.5855 3.39212 13.0682 3.78386L9.3918 10.1318C8.99032 10.8263 8.08813 11.0578 7.39796 10.6482L4.13654 8.71622C4.25834 8.44913 4.33502 8.15087 4.33502 7.83481C4.33502 6.65513 3.36517 5.69804 2.16977 5.69804C0.974365 5.69804 0 6.65513 0 7.83481C0 9.01448 0.969854 9.97157 2.16526 9.97157C2.28254 9.97157 2.39983 9.95377 2.5126 9.93596L5.77402 18.5186H23.0961L26.3575 9.93596C26.4703 9.95377 26.5875 9.97157 26.7048 9.97157C27.9002 9.97157 28.8701 9.01448 28.8701 7.83481C28.8701 6.65513 27.9002 5.69804 26.7048 5.69804Z" fill="#F6C138"/>
</svg>
