<svg width="19" height="15" viewBox="0 0 19 15" fill="none" xmlns="http://www.w3.org/2000/svg">
<path d="M0.75 2.25C0.75 1.78587 0.934374 1.34075 1.26256 1.01256C1.59075 0.684374 2.03587 0.5 2.5 0.5H10.375C10.8391 0.5 11.2842 0.684374 11.6124 1.01256C11.9406 1.34075 12.125 1.78587 12.125 2.25V4C12.125 4.23206 12.0328 4.45462 11.8687 4.61872C11.7046 4.78281 11.4821 4.875 11.25 4.875C11.0179 4.875 10.7954 4.78281 10.6313 4.61872C10.4672 4.45462 10.375 4.23206 10.375 4V2.25H2.5V12.75H10.375V11C10.375 10.7679 10.4672 10.5454 10.6313 10.3813C10.7954 10.2172 11.0179 10.125 11.25 10.125C11.4821 10.125 11.7046 10.2172 11.8687 10.3813C12.0328 10.5454 12.125 10.7679 12.125 11V12.75C12.125 13.2141 11.9406 13.6592 11.6124 13.9874C11.2842 14.3156 10.8391 14.5 10.375 14.5H2.5C2.03587 14.5 1.59075 14.3156 1.26256 13.9874C0.934374 13.6592 0.75 13.2141 0.75 12.75V2.25ZM14.1314 4.25638C14.2955 4.09234 14.518 4.00019 14.75 4.00019C14.982 4.00019 15.2045 4.09234 15.3686 4.25638L17.9936 6.88138C18.1577 7.04546 18.2498 7.26798 18.2498 7.5C18.2498 7.73202 18.1577 7.95454 17.9936 8.11862L15.3686 10.7436C15.2036 10.903 14.9826 10.9912 14.7531 10.9892C14.5237 10.9872 14.3043 10.8952 14.142 10.733C13.9798 10.5707 13.8878 10.3513 13.8858 10.1219C13.8838 9.89243 13.972 9.6714 14.1314 9.50638L15.2628 8.375H6.875C6.64294 8.375 6.42038 8.28281 6.25628 8.11872C6.09219 7.95462 6 7.73206 6 7.5C6 7.26794 6.09219 7.04538 6.25628 6.88128C6.42038 6.71719 6.64294 6.625 6.875 6.625H15.2628L14.1314 5.49362C13.9673 5.32954 13.8752 5.10702 13.8752 4.875C13.8752 4.64298 13.9673 4.42046 14.1314 4.25638Z" fill="#979797"/>
</svg>
