<svg width="18" height="17" viewBox="0 0 18 17" fill="none" xmlns="http://www.w3.org/2000/svg">
<path d="M15.875 0.494141H2.125C1.76033 0.494141 1.41059 0.634745 1.15273 0.885024C0.894866 1.1353 0.75 1.47475 0.75 1.8287V15.1743C0.75 15.5282 0.894866 15.8677 1.15273 16.118C1.41059 16.3682 1.76033 16.5088 2.125 16.5088H15.875C16.2397 16.5088 16.5894 16.3682 16.8473 16.118C17.1051 15.8677 17.25 15.5282 17.25 15.1743V1.8287C17.25 1.47475 17.1051 1.1353 16.8473 0.885024C16.5894 0.634745 16.2397 0.494141 15.875 0.494141ZM5.76359 7.36211C5.82744 7.30007 5.90327 7.25086 5.98673 7.21728C6.07019 7.18369 6.15965 7.16641 6.25 7.16641C6.34035 7.16641 6.42981 7.18369 6.51327 7.21728C6.59673 7.25086 6.67256 7.30007 6.73641 7.36211L8.3125 8.89269V3.83054C8.3125 3.65356 8.38493 3.48384 8.51386 3.3587C8.6428 3.23356 8.81766 3.16326 9 3.16326C9.18234 3.16326 9.35721 3.23356 9.48614 3.3587C9.61507 3.48384 9.6875 3.65356 9.6875 3.83054V8.89269L11.2636 7.36211C11.3275 7.30012 11.4033 7.25094 11.4868 7.21739C11.5702 7.18383 11.6597 7.16656 11.75 7.16656C11.8403 7.16656 11.9298 7.18383 12.0132 7.21739C12.0967 7.25094 12.1725 7.30012 12.2364 7.36211C12.3003 7.42411 12.351 7.49771 12.3855 7.57872C12.4201 7.65972 12.4379 7.74654 12.4379 7.83421C12.4379 7.92189 12.4201 8.00871 12.3855 8.08971C12.351 8.17072 12.3003 8.24432 12.2364 8.30632L9.48641 10.9754C9.42256 11.0375 9.34673 11.0867 9.26327 11.1203C9.17981 11.1539 9.09035 11.1711 9 11.1711C8.90965 11.1711 8.82019 11.1539 8.73673 11.1203C8.65327 11.0867 8.57744 11.0375 8.51359 10.9754L5.76359 8.30632C5.69967 8.24434 5.64896 8.17075 5.61437 8.08974C5.57977 8.00874 5.56196 7.92191 5.56196 7.83421C5.56196 7.74652 5.57977 7.65969 5.61437 7.57869C5.64896 7.49768 5.69967 7.42409 5.76359 7.36211ZM15.875 15.1743H2.125V11.8379H4.59055L6.25 13.4494C6.37738 13.5736 6.52886 13.672 6.6957 13.739C6.86253 13.806 7.0414 13.8403 7.22195 13.8397H10.778C10.9587 13.8403 11.1376 13.806 11.3045 13.7388C11.4713 13.6717 11.6228 13.573 11.75 13.4485L13.4095 11.8379H15.875V15.1743Z" fill="#979797"/>
</svg>
