<svg width="14" height="14" viewBox="0 0 14 14" fill="none" xmlns="http://www.w3.org/2000/svg">
<path d="M7.1993 13.6667C5.3993 13.6667 3.66596 13.0001 2.33263 11.6667C-0.334035 9.00006 -0.334035 4.80006 2.26596 2.20006C3.1993 1.20006 4.46597 0.533395 5.86596 0.333395C6.13263 0.266729 6.3993 0.400062 6.53263 0.666729C6.66597 0.933395 6.66597 1.20006 6.46596 1.40006C4.9993 3.06673 5.13263 5.66673 6.73263 7.26673C8.33263 8.86673 10.866 9.00006 12.5326 7.5334C12.7326 7.3334 13.066 7.3334 13.266 7.46673C13.5326 7.60006 13.666 7.86673 13.5993 8.1334C13.3993 9.5334 12.7326 10.7334 11.7993 11.7334C10.5326 13.0001 8.86596 13.6667 7.1993 13.6667Z" fill="#979797"/>
</svg>
