<svg width="16" height="17" viewBox="0 0 16 17" fill="none" xmlns="http://www.w3.org/2000/svg">
<path d="M14.8714 4.73184L11.5546 1.24122C11.4443 1.12511 11.3134 1.03301 11.1693 0.970178C11.0252 0.907342 10.8708 0.875 10.7148 0.875C10.5588 0.875 10.4044 0.907342 10.2603 0.970178C10.1162 1.03301 9.98528 1.12511 9.87501 1.24122L0.723092 10.8748C0.612342 10.9905 0.524537 11.1281 0.46478 11.2798C0.405024 11.4315 0.374508 11.5942 0.375006 11.7584V15.2498C0.375006 15.5813 0.500117 15.8993 0.722817 16.1337C0.945516 16.3681 1.24756 16.4998 1.56251 16.4998H14.0313C14.1887 16.4998 14.3398 16.434 14.4511 16.3168C14.5625 16.1995 14.625 16.0406 14.625 15.8748C14.625 15.7091 14.5625 15.5501 14.4511 15.4329C14.3398 15.3157 14.1887 15.2498 14.0313 15.2498H6.55891L14.8714 6.49981C14.9817 6.38373 15.0692 6.24592 15.1289 6.09425C15.1886 5.94257 15.2193 5.78 15.2193 5.61583C15.2193 5.45165 15.1886 5.28908 15.1289 5.13741C15.0692 4.98573 14.9817 4.84792 14.8714 4.73184ZM12.25 7.49122L8.93391 3.99981L10.7152 2.12481L14.0313 5.61622L12.25 7.49122Z" fill="black"/>
</svg>
