<svg width="12" height="11" viewBox="0 0 12 11" fill="none" xmlns="http://www.w3.org/2000/svg">
<path fill-rule="evenodd" clip-rule="evenodd" d="M5.26155 1.14214C5.4862 1.01566 5.73965 0.949219 5.99745 0.949219C6.25525 0.949219 6.5087 1.01566 6.73334 1.14214C6.95799 1.26862 7.14624 1.45086 7.27995 1.67128L7.28139 1.67365L11.5164 8.74366L11.5204 8.75056C11.6514 8.97738 11.7207 9.23453 11.7215 9.49645C11.7222 9.75837 11.6543 10.0159 11.5246 10.2435C11.3949 10.471 11.2079 10.6606 10.9822 10.7934C10.7564 10.9263 10.4998 10.9977 10.2379 11.0006L10.2324 11.0006L1.75695 11.0006C1.49505 10.9977 1.23847 10.9263 1.01273 10.7934C0.786995 10.6606 0.599973 10.471 0.470272 10.2435C0.34057 10.0159 0.27271 9.75837 0.273443 9.49645C0.274177 9.23453 0.343478 8.97738 0.474452 8.75056L0.478513 8.74366L4.71351 1.67366L5.14244 1.93059L4.71495 1.67128C4.84865 1.45086 5.03691 1.26862 5.26155 1.14214ZM5.57055 2.18891L1.33879 9.2535C1.2962 9.3284 1.27368 9.41305 1.27344 9.49925C1.2732 9.58656 1.29581 9.6724 1.33905 9.74825C1.38228 9.8241 1.44462 9.88731 1.51987 9.93158C1.59446 9.97547 1.67914 9.99924 1.76565 10.0006H10.2292C10.3157 9.99924 10.4004 9.97547 10.475 9.93158C10.5503 9.88731 10.6126 9.8241 10.6558 9.74825C10.6991 9.6724 10.7217 9.58656 10.7215 9.49925C10.7212 9.41306 10.6987 9.32842 10.6561 9.25353L6.42495 2.1899L6.42434 2.18891C6.37981 2.11588 6.31729 2.05549 6.24275 2.01353C6.16786 1.97137 6.08338 1.94922 5.99745 1.94922C5.91151 1.94922 5.82703 1.97137 5.75215 2.01353C5.6776 2.05549 5.61508 2.11588 5.57055 2.18891ZM5.99756 4.0006C6.2737 4.0006 6.49756 4.22445 6.49756 4.5006V6.5006C6.49756 6.77674 6.2737 7.0006 5.99756 7.0006C5.72142 7.0006 5.49756 6.77674 5.49756 6.5006V4.5006C5.49756 4.22445 5.72142 4.0006 5.99756 4.0006ZM5.99756 8.0006C5.72142 8.0006 5.49756 8.22445 5.49756 8.5006C5.49756 8.77674 5.72142 9.0006 5.99756 9.0006H6.00256C6.2787 9.0006 6.50256 8.77674 6.50256 8.5006C6.50256 8.22445 6.2787 8.0006 6.00256 8.0006H5.99756Z" fill="#6D560E"/>
</svg>
