<svg width="16" height="16" viewBox="0 0 16 16" fill="none" xmlns="http://www.w3.org/2000/svg">
<path d="M8 0.6875C6.55373 0.6875 5.13993 1.11637 3.9374 1.91988C2.73486 2.72339 1.7976 3.86544 1.24413 5.20163C0.690668 6.53781 0.545856 8.00811 0.828011 9.4266C1.11017 10.8451 1.80661 12.148 2.82928 13.1707C3.85196 14.1934 5.15492 14.8898 6.57341 15.172C7.99189 15.4541 9.46219 15.3093 10.7984 14.7559C12.1346 14.2024 13.2766 13.2651 14.0801 12.0626C14.8836 10.8601 15.3125 9.44628 15.3125 8C15.3105 6.06123 14.5394 4.20246 13.1685 2.83154C11.7975 1.46063 9.93877 0.689547 8 0.6875ZM10.0855 8.39797L7.27297 11.2105C7.22071 11.2627 7.15867 11.3042 7.09038 11.3325C7.0221 11.3608 6.94891 11.3753 6.875 11.3753C6.80109 11.3753 6.72791 11.3608 6.65962 11.3325C6.59134 11.3042 6.5293 11.2627 6.47703 11.2105C6.42477 11.1582 6.38332 11.0962 6.35503 11.0279C6.32675 10.9596 6.31219 10.8864 6.31219 10.8125C6.31219 10.7386 6.32675 10.6654 6.35503 10.5971C6.38332 10.5288 6.42477 10.4668 6.47703 10.4145L8.89227 8L6.47703 5.58547C6.37149 5.47992 6.31219 5.33677 6.31219 5.1875C6.31219 5.03823 6.37149 4.89508 6.47703 4.78953C6.58258 4.68398 6.72574 4.62469 6.875 4.62469C7.02427 4.62469 7.16742 4.68398 7.27297 4.78953L10.0855 7.60203C10.1378 7.65427 10.1793 7.71631 10.2076 7.7846C10.2359 7.85288 10.2504 7.92608 10.2504 8C10.2504 8.07392 10.2359 8.14712 10.2076 8.2154C10.1793 8.28369 10.1378 8.34573 10.0855 8.39797Z" fill="#343330"/>
</svg>
