<svg width="16" height="16" viewBox="0 0 16 16" fill="none" xmlns="http://www.w3.org/2000/svg">
<path d="M8.0013 3.4668C5.6013 3.4668 3.66797 5.40013 3.66797 7.80013C3.66797 10.2001 5.6013 12.1335 8.0013 12.1335C10.4013 12.1335 12.3346 10.2001 12.3346 7.80013C12.3346 5.40013 10.4013 3.4668 8.0013 3.4668Z" fill="#979797"/>
<path d="M8.0026 3.06602C8.4026 3.06602 8.66927 2.79935 8.66927 2.39935V1.33268C8.66927 0.932682 8.4026 0.666016 8.0026 0.666016C7.6026 0.666016 7.33594 0.932682 7.33594 1.33268V2.39935C7.33594 2.73268 7.6026 3.06602 8.0026 3.06602Z" fill="#979797"/>
<path d="M3.5349 4.46628C3.66823 4.59961 3.86823 4.66628 4.00156 4.66628C4.1349 4.66628 4.3349 4.59961 4.46823 4.46628C4.7349 4.19961 4.7349 3.79961 4.46823 3.53294L3.7349 2.79961C3.46823 2.53294 3.06823 2.53294 2.80156 2.79961C2.5349 3.06628 2.5349 3.46628 2.80156 3.73294L3.5349 4.46628Z" fill="#979797"/>
<path d="M3.06797 7.9987C3.06797 7.5987 2.8013 7.33203 2.4013 7.33203H1.33464C0.934635 7.33203 0.667969 7.5987 0.667969 7.9987C0.667969 8.3987 0.934635 8.66536 1.33464 8.66536H2.4013C2.73464 8.66536 3.06797 8.3987 3.06797 7.9987Z" fill="#979797"/>
<path d="M3.5349 11.532L2.80156 12.2654C2.5349 12.532 2.5349 12.932 2.80156 13.1987C2.9349 13.332 3.1349 13.3987 3.26823 13.3987C3.40156 13.3987 3.60156 13.332 3.7349 13.1987L4.46823 12.4654C4.7349 12.1987 4.7349 11.7987 4.46823 11.532C4.20156 11.2654 3.80156 11.2654 3.5349 11.532Z" fill="#979797"/>
<path d="M8.0026 12.9336C7.6026 12.9336 7.33594 13.2003 7.33594 13.6003V14.6669C7.33594 15.0669 7.6026 15.3336 8.0026 15.3336C8.4026 15.3336 8.66927 15.0669 8.66927 14.6669V13.6003C8.66927 13.2669 8.4026 12.9336 8.0026 12.9336Z" fill="#979797"/>
<path d="M12.4693 11.532C12.2026 11.2654 11.8026 11.2654 11.5359 11.532C11.2693 11.7987 11.2693 12.1987 11.5359 12.4654L12.2693 13.1987C12.4026 13.332 12.6026 13.3987 12.7359 13.3987C12.8693 13.3987 13.0693 13.332 13.2026 13.1987C13.4693 12.932 13.4693 12.532 13.2026 12.2654L12.4693 11.532Z" fill="#979797"/>
<path d="M14.6669 7.33203H13.6003C13.2003 7.33203 12.9336 7.5987 12.9336 7.9987C12.9336 8.3987 13.2003 8.66536 13.6003 8.66536H14.6669C15.0669 8.66536 15.3336 8.3987 15.3336 7.9987C15.3336 7.5987 15.0669 7.33203 14.6669 7.33203Z" fill="#979797"/>
<path d="M12.0026 4.66628C12.2026 4.66628 12.3359 4.59961 12.4693 4.46628L13.2026 3.73294C13.4693 3.46628 13.4693 3.06628 13.2026 2.79961C12.9359 2.53294 12.5359 2.53294 12.2693 2.79961L11.5359 3.53294C11.2693 3.79961 11.2693 4.19961 11.5359 4.46628C11.6693 4.59961 11.8026 4.66628 12.0026 4.66628Z" fill="#979797"/>
</svg>
