<svg width="251" height="251" viewBox="0 0 251 251" fill="none" xmlns="http://www.w3.org/2000/svg">
<rect width="250.664" height="250.664" rx="16" fill="#FF5C00" fill-opacity="0.2"/>
<path d="M124.979 124.8C124.98 125.556 124.816 126.303 124.5 126.985C124.184 127.667 123.723 128.267 123.153 128.739L98.8042 148.908C98.3046 149.322 97.7311 149.63 97.1166 149.814C96.502 149.999 95.8584 150.056 95.2225 149.983C94.5866 149.909 93.9708 149.707 93.4104 149.388C92.8499 149.068 92.3557 148.637 91.956 148.12C91.5563 147.603 91.2589 147.009 91.0809 146.373C90.9028 145.737 90.8475 145.07 90.9182 144.412C90.9888 143.753 91.184 143.116 91.4927 142.535C91.8013 141.955 92.2173 141.443 92.7169 141.03L112.312 124.8L92.7169 108.57C92.2173 108.157 91.8013 107.645 91.4927 107.065C91.184 106.484 90.9888 105.847 90.9182 105.188C90.8475 104.53 90.9028 103.864 91.0809 103.227C91.2589 102.591 91.5563 101.997 91.956 101.48C92.3557 100.963 92.8499 100.532 93.4104 100.212C93.9708 99.8928 94.5866 99.6906 95.2225 99.6175C95.8584 99.5443 96.502 99.6016 97.1166 99.7859C97.7311 99.9703 98.3046 100.278 98.8042 100.692L123.153 120.861C123.723 121.334 124.184 121.933 124.5 122.615C124.816 123.297 124.98 124.044 124.979 124.8ZM154.198 139.927H129.849C128.558 139.927 127.319 140.458 126.406 141.403C125.492 142.349 124.979 143.632 124.979 144.969C124.979 146.306 125.492 147.589 126.406 148.534C127.319 149.48 128.558 150.011 129.849 150.011H154.198C155.49 150.011 156.728 149.48 157.642 148.534C158.555 147.589 159.068 146.306 159.068 144.969C159.068 143.632 158.555 142.349 157.642 141.403C156.728 140.458 155.49 139.927 154.198 139.927ZM188.287 79.4203V170.18C188.287 172.854 187.261 175.419 185.434 177.311C183.608 179.202 181.13 180.264 178.547 180.264H71.4115C68.8284 180.264 66.3511 179.202 64.5245 177.311C62.698 175.419 61.6719 172.854 61.6719 170.18L61.6719 79.4203C61.6719 76.7458 62.698 74.1808 64.5245 72.2896C66.3511 70.3984 68.8284 69.3359 71.4115 69.3359H178.547C181.13 69.3359 183.608 70.3984 185.434 72.2896C187.261 74.1808 188.287 76.7458 188.287 79.4203ZM178.547 170.18V79.4203H71.4115V170.18H178.547Z" fill="#FF5C00"/>
</svg>
