<svg width="21" height="20" viewBox="0 0 21 20" fill="grey" xmlns="http://www.w3.org/2000/svg">
<g id="Info">
<path id="Vector" d="M9.66602 5.83073H11.3327V7.4974H9.66602V5.83073ZM9.66602 9.16406H11.3327V14.1641H9.66602V9.16406ZM10.4993 1.66406C5.89935 1.66406 2.16602 5.3974 2.16602 9.9974C2.16602 14.5974 5.89935 18.3307 10.4993 18.3307C15.0993 18.3307 18.8327 14.5974 18.8327 9.9974C18.8327 5.3974 15.0993 1.66406 10.4993 1.66406ZM10.4993 16.6641C6.82435 16.6641 3.83268 13.6724 3.83268 9.9974C3.83268 6.3224 6.82435 3.33073 10.4993 3.33073C14.1743 3.33073 17.166 6.3224 17.166 9.9974C17.166 13.6724 14.1743 16.6641 10.4993 16.6641Z" fill="grey"/>
</g>
</svg>
