<svg width="251" height="251" viewBox="0 0 251 251" fill="none" xmlns="http://www.w3.org/2000/svg">
<rect width="250.664" height="250.664" rx="16" fill="#FF00B8" fill-opacity="0.2"/>
<path d="M188.26 161.299L169.308 72.0429C169.063 70.8757 168.587 69.7679 167.908 68.7833C167.23 67.7987 166.362 66.9566 165.353 66.3053C164.345 65.6541 163.217 65.2066 162.034 64.9886C160.851 64.7705 159.635 64.7862 158.458 65.0348L131.729 70.725C129.365 71.2378 127.3 72.6546 125.985 74.6671C124.67 76.6797 124.21 79.1253 124.705 81.472L143.658 170.729C144.08 172.765 145.197 174.595 146.821 175.912C148.446 177.228 150.478 177.95 152.577 177.957C153.226 177.956 153.872 177.888 154.507 177.754L181.236 172.063C183.603 171.549 185.67 170.13 186.985 168.114C188.301 166.098 188.759 163.649 188.26 161.299ZM133.642 79.6224C133.642 79.5884 133.642 79.5715 133.642 79.5715L160.366 73.9152L162.267 82.8917L135.543 88.5876L133.642 79.6224ZM137.422 97.4228L164.157 91.7382L166.064 100.732L139.352 106.422L137.422 97.4228ZM141.214 115.28L167.949 109.589L175.543 145.36L148.808 151.05L141.214 115.28ZM179.323 163.217L152.6 168.873L150.698 159.897L177.422 154.201L179.323 163.166C179.323 163.2 179.323 163.217 179.323 163.217ZM115.369 69.3562H87.9605C85.5374 69.3562 83.2136 70.3097 81.5002 72.0069C79.7868 73.7041 78.8242 76.006 78.8242 78.4063V168.907C78.8242 171.307 79.7868 173.609 81.5002 175.307C83.2136 177.004 85.5374 177.957 87.9605 177.957H115.369C117.792 177.957 120.116 177.004 121.83 175.307C123.543 173.609 124.506 171.307 124.506 168.907V78.4063C124.506 76.006 123.543 73.7041 121.83 72.0069C120.116 70.3097 117.792 69.3562 115.369 69.3562ZM87.9605 78.4063H115.369V87.4564H87.9605V78.4063ZM87.9605 96.5064H115.369V150.807H87.9605V96.5064ZM115.369 168.907H87.9605V159.857H115.369V168.907Z" fill="#FF00B8"/>
</svg>
