<svg id="b38b2308-3b95-44ad-b45e-1c0b173e1b47" data-name="Capa 1" xmlns="http://www.w3.org/2000/svg" width="20" height="20" viewBox="0 0 20 20"><defs><style>.a14d99a1-549b-48e2-be71-189782698dc8,.a581b3a7-9347-4895-849f-dd6d7c9b27ff{fill:#4f5660;}.a14d99a1-549b-48e2-be71-189782698dc8{fill-rule:evenodd;}</style></defs><title>MyDocs</title><path id="b2a8e163-4d2a-47d1-b356-6d73c9cba595" data-name="Outline (Stroke)" class="a14d99a1-549b-48e2-be71-189782698dc8" d="M18.75,1.5H2.25A.25.25,0,0,0,2,1.75v16.5a.25.25,0,0,0,.25.25h16.5a.25.25,0,0,0,.25-.25V1.75A.25.25,0,0,0,18.75,1.5ZM2.25,0A1.75,1.75,0,0,0,.5,1.75v16.5A1.75,1.75,0,0,0,2.25,20h16.5a1.75,1.75,0,0,0,1.75-1.75V1.75A1.75,1.75,0,0,0,18.75,0Z" transform="translate(-0.5)"/><g id="a35ac4a4-ff92-425a-b304-468dc10184d4" data-name="Text"><path id="bfe05516-37dd-4372-8532-8c3d26b07453" data-name="li" class="a581b3a7-9347-4895-849f-dd6d7c9b27ff" d="M4.75,3.71H6.89a.93.93,0,0,1,.93.93h0a.93.93,0,0,1-.93.94H4.75a.94.94,0,0,1-.94-.94h0A.94.94,0,0,1,4.75,3.71Z" transform="translate(-0.5)"/><path id="f4c8aefa-f94f-468a-9119-20fbc2efbceb" data-name="li 2" class="a581b3a7-9347-4895-849f-dd6d7c9b27ff" d="M10.1,3.71h6.15a.94.94,0,0,1,.94.93h0a.94.94,0,0,1-.94.94H10.1a.94.94,0,0,1-.94-.94h0A.94.94,0,0,1,10.1,3.71Z" transform="translate(-0.5)"/><path id="e96bd2f0-f9bf-4104-8787-6b2f3058ac46" data-name="li 3" class="a581b3a7-9347-4895-849f-dd6d7c9b27ff" d="M4.75,7.72H6.89a.93.93,0,0,1,.93.94h0a.93.93,0,0,1-.93.93H4.75a.94.94,0,0,1-.94-.93h0A.94.94,0,0,1,4.75,7.72Z" transform="translate(-0.5)"/><path id="a649a33d-2e8a-4cc5-98ff-ab1880bb6fa0" data-name="li 4" class="a581b3a7-9347-4895-849f-dd6d7c9b27ff" d="M10.1,7.72h6.15a.94.94,0,0,1,.94.94h0a.94.94,0,0,1-.94.93H10.1a.94.94,0,0,1-.94-.93h0A.94.94,0,0,1,10.1,7.72Z" transform="translate(-0.5)"/><path id="b7b704d8-5d75-4508-a103-88a913008373" data-name="li 5" class="a581b3a7-9347-4895-849f-dd6d7c9b27ff" d="M4.75,11.73H6.89a.93.93,0,0,1,.93.94h0a.93.93,0,0,1-.93.94H4.75a.94.94,0,0,1-.94-.94h0A.94.94,0,0,1,4.75,11.73Z" transform="translate(-0.5)"/><path id="bee9b54a-81a1-42f3-bb02-37b570a25fc7" data-name="li 6" class="a581b3a7-9347-4895-849f-dd6d7c9b27ff" d="M10.1,11.73h6.15a.94.94,0,0,1,.94.94h0a.94.94,0,0,1-.94.94H10.1a.94.94,0,0,1-.94-.94h0A.94.94,0,0,1,10.1,11.73Z" transform="translate(-0.5)"/></g></svg>