<svg width="251" height="251" viewBox="0 0 251 251" fill="none" xmlns="http://www.w3.org/2000/svg">
<rect width="250.664" height="250.664" rx="16" fill="#00B2FF" fill-opacity="0.2"/>
<path d="M182.892 167.586C182.892 168.74 182.438 169.847 181.63 170.663C180.822 171.48 179.726 171.938 178.583 171.938H75.1533C74.0103 171.938 72.9142 171.48 72.106 170.663C71.2978 169.847 70.8438 168.74 70.8438 167.586V80.5324C70.8438 79.378 71.2978 78.2708 72.106 77.4546C72.9142 76.6383 74.0103 76.1797 75.1533 76.1797C76.2963 76.1797 77.3924 76.6383 78.2006 77.4546C79.0088 78.2708 79.4629 79.378 79.4629 80.5324V163.233H178.583C179.726 163.233 180.822 163.692 181.63 164.508C182.438 165.324 182.892 166.431 182.892 167.586ZM129.023 141.47C130.301 141.47 131.551 141.087 132.614 140.369C133.677 139.652 134.506 138.632 134.995 137.439C135.484 136.246 135.612 134.933 135.363 133.667C135.114 132.4 134.498 131.237 133.594 130.324C132.69 129.411 131.538 128.789 130.284 128.537C129.03 128.285 127.73 128.414 126.549 128.909C125.368 129.403 124.358 130.24 123.648 131.313C122.938 132.387 122.559 133.649 122.559 134.941C122.559 136.672 123.24 138.333 124.452 139.557C125.664 140.782 127.308 141.47 129.023 141.47ZM116.094 111.001C117.373 111.001 118.623 110.618 119.686 109.901C120.749 109.183 121.577 108.164 122.066 106.971C122.556 105.778 122.684 104.465 122.434 103.198C122.185 101.932 121.569 100.768 120.665 99.8553C119.761 98.9422 118.609 98.3204 117.355 98.0685C116.101 97.8165 114.802 97.9458 113.62 98.44C112.439 98.9342 111.43 99.771 110.719 100.845C110.009 101.918 109.63 103.181 109.63 104.472C109.63 106.204 110.311 107.864 111.523 109.089C112.736 110.313 114.38 111.001 116.094 111.001ZM98.8559 150.175C100.134 150.175 101.384 149.792 102.447 149.075C103.51 148.357 104.339 147.338 104.828 146.144C105.317 144.951 105.446 143.639 105.196 142.372C104.947 141.106 104.331 139.942 103.427 139.029C102.523 138.116 101.371 137.494 100.117 137.242C98.8631 136.99 97.5633 137.12 96.3821 137.614C95.2009 138.108 94.1913 138.945 93.481 140.019C92.7707 141.092 92.3916 142.355 92.3916 143.646C92.3916 145.378 93.0726 147.038 94.2849 148.263C95.4972 149.487 97.1415 150.175 98.8559 150.175ZM150.571 124.059C151.849 124.059 153.099 123.676 154.162 122.959C155.225 122.241 156.054 121.222 156.543 120.029C157.032 118.836 157.16 117.523 156.911 116.256C156.661 114.99 156.046 113.826 155.142 112.913C154.238 112 153.086 111.378 151.832 111.126C150.578 110.875 149.278 111.004 148.097 111.498C146.916 111.992 145.906 112.829 145.196 113.903C144.486 114.976 144.106 116.239 144.106 117.53C144.106 119.262 144.787 120.922 146 122.147C147.212 123.371 148.856 124.059 150.571 124.059ZM163.499 102.296C164.778 102.296 166.028 101.913 167.091 101.195C168.154 100.478 168.982 99.4582 169.472 98.2652C169.961 97.0722 170.089 95.7594 169.84 94.4929C169.59 93.2264 168.974 92.0631 168.07 91.15C167.166 90.2369 166.015 89.6151 164.761 89.3631C163.507 89.1112 162.207 89.2405 161.026 89.7347C159.844 90.2288 158.835 91.0657 158.125 92.1394C157.414 93.213 157.035 94.4754 157.035 95.7667C157.035 97.4983 157.716 99.1589 158.928 100.383C160.141 101.608 161.785 102.296 163.499 102.296ZM152.726 143.646C152.726 144.937 153.105 146.2 153.815 147.273C154.525 148.347 155.535 149.184 156.716 149.678C157.897 150.172 159.197 150.301 160.451 150.049C161.705 149.798 162.857 149.176 163.761 148.263C164.665 147.35 165.281 146.186 165.53 144.92C165.779 143.653 165.651 142.34 165.162 141.147C164.673 139.954 163.844 138.935 162.781 138.217C161.718 137.5 160.468 137.117 159.19 137.117C157.475 137.117 155.831 137.805 154.619 139.029C153.407 140.254 152.726 141.914 152.726 143.646Z" fill="#00B2FF"/>
</svg>
