<svg width="251" height="251" viewBox="0 0 251 251" fill="none" xmlns="http://www.w3.org/2000/svg">
<rect width="250.664" height="250.664" rx="16" fill="#9200D7" fill-opacity="0.2"/>
<path d="M184.897 147.58C184.141 147.115 183.277 146.843 182.385 146.791C181.493 146.739 180.602 146.908 179.795 147.282C177.775 148.214 175.547 148.633 173.317 148.499C171.087 148.365 168.927 147.684 167.04 146.517C165.152 145.351 163.597 143.738 162.52 141.829C161.443 139.919 160.878 137.775 160.878 135.595C160.878 133.415 161.443 131.27 162.52 129.361C163.597 127.451 165.152 125.838 167.04 124.672C168.927 123.506 171.087 122.824 173.317 122.69C175.547 122.557 177.775 122.975 179.795 123.907C180.603 124.281 181.495 124.45 182.388 124.397C183.281 124.344 184.146 124.072 184.902 123.606C185.658 123.139 186.28 122.494 186.712 121.729C187.143 120.965 187.369 120.106 187.369 119.233V91.6371C187.369 88.894 186.252 86.2632 184.264 84.3236C182.275 82.3839 179.579 81.2942 176.767 81.2942H152.768C152.867 80.4356 152.915 79.5723 152.914 78.7084C152.909 75.5301 152.239 72.3861 150.944 69.4694C149.65 66.5526 147.759 63.9245 145.387 61.746C142.102 58.7363 138.011 56.6958 133.586 55.861C129.162 55.0261 124.586 55.431 120.388 57.0287C116.19 58.6264 112.541 61.3516 109.865 64.8887C107.189 68.4258 105.595 72.6301 105.266 77.0148C105.165 78.441 105.196 79.8734 105.359 81.2942H81.3534C78.5417 81.2942 75.8451 82.3839 73.8569 84.3236C71.8688 86.2632 70.7518 88.894 70.7518 91.6371V112.465C69.8718 112.369 68.9869 112.322 68.1014 112.323C64.8437 112.328 61.6213 112.982 58.6316 114.245C55.642 115.508 52.9481 117.352 50.7149 119.667C48.4657 121.984 46.7338 124.732 45.6287 127.737C44.5236 130.741 44.0692 133.936 44.2944 137.12C44.6742 142.727 47.1162 148.012 51.1713 152.003C55.2263 155.993 60.6218 158.421 66.3654 158.841C67.8273 158.943 69.2957 158.913 70.7518 158.75V179.552C70.7518 182.295 71.8688 184.926 73.8569 186.866C75.8451 188.806 78.5417 189.895 81.3534 189.895H176.767C179.579 189.895 182.275 188.806 184.264 186.866C186.252 184.926 187.369 182.295 187.369 179.552V151.956C187.369 151.082 187.143 150.223 186.711 149.457C186.278 148.692 185.655 148.046 184.897 147.58ZM176.767 179.552H81.3534V151.956C81.3536 151.083 81.1276 150.225 80.6962 149.46C80.2648 148.696 79.6422 148.05 78.8863 147.584C78.1303 147.117 77.2657 146.845 76.3728 146.792C75.48 146.74 74.588 146.908 73.7799 147.282C71.7601 148.214 69.5315 148.633 67.3014 148.499C65.0713 148.365 62.912 147.684 61.0244 146.517C59.1367 145.351 57.5819 143.738 56.5046 141.829C55.4273 139.919 54.8623 137.775 54.8623 135.595C54.8623 133.415 55.4273 131.27 56.5046 129.361C57.5819 127.451 59.1367 125.838 61.0244 124.672C62.912 123.506 65.0713 122.824 67.3014 122.69C69.5315 122.557 71.7601 122.975 73.7799 123.907C74.588 124.281 75.48 124.45 76.3728 124.397C77.2657 124.344 78.1303 124.072 78.8863 123.606C79.6422 123.139 80.2648 122.494 80.6962 121.729C81.1276 120.965 81.3536 120.106 81.3534 119.233V91.6371H112.29C113.184 91.6374 114.064 91.4169 114.848 90.996C115.632 90.5752 116.293 89.9677 116.771 89.2302C117.25 88.4927 117.529 87.6491 117.583 86.7781C117.637 85.907 117.464 85.0368 117.081 84.2484C116.125 82.2778 115.696 80.1036 115.833 77.9279C115.97 75.7522 116.669 73.6456 117.864 71.804C119.06 69.9624 120.713 68.4455 122.67 67.3945C124.628 66.3434 126.826 65.7922 129.06 65.7922C131.295 65.7922 133.493 66.3434 135.45 67.3945C137.407 68.4455 139.061 69.9624 140.256 71.804C141.451 73.6456 142.15 75.7522 142.287 77.9279C142.424 80.1036 141.995 82.2778 141.04 84.2484C140.656 85.0368 140.484 85.907 140.538 86.7781C140.592 87.6491 140.871 88.4927 141.349 89.2302C141.827 89.9677 142.489 90.5752 143.272 90.996C144.056 91.4169 144.936 91.6374 145.831 91.6371H176.767V112.472C175.311 112.309 173.843 112.279 172.381 112.381C166.211 112.807 160.453 115.555 156.32 120.044C152.187 124.533 150.003 130.412 150.228 136.442C150.453 142.472 153.07 148.181 157.527 152.365C161.984 156.548 167.932 158.879 174.117 158.866C175.002 158.868 175.887 158.82 176.767 158.724V179.552Z" fill="#9200D7"/>
</svg>
