<svg width="251" height="251" viewBox="0 0 251 251" fill="none" xmlns="http://www.w3.org/2000/svg">
<rect width="250.664" height="250.664" rx="16" fill="#DB01FF" fill-opacity="0.2"/>
<path d="M186.927 96.818C186.925 93.4009 185.947 90.0526 184.104 87.1536C182.26 84.2546 179.626 81.9209 176.499 80.4177C173.372 78.9144 169.879 78.3019 166.415 78.6495C162.952 78.9971 159.657 80.2911 156.905 82.3844C154.153 84.4776 152.054 87.2864 150.847 90.4916C149.64 93.6968 149.372 97.17 150.075 100.517C150.778 103.864 152.424 106.95 154.824 109.425C157.224 111.9 160.284 113.665 163.655 114.52V119.659C163.655 122.082 162.674 124.406 160.929 126.119C159.183 127.832 156.815 128.795 154.346 128.795H107.803C105.334 128.795 102.967 127.832 101.221 126.119C99.4751 124.406 98.4944 122.082 98.4944 119.659V114.52C102.882 113.408 106.705 110.764 109.249 107.083C111.792 103.402 112.88 98.9368 112.309 94.5248C111.738 90.1129 109.547 86.0567 106.147 83.1167C102.747 80.1767 98.3714 78.5547 93.84 78.5547C89.3087 78.5547 84.9329 80.1767 81.5329 83.1167C78.1329 86.0567 75.9421 90.1129 75.3711 94.5248C74.8001 98.9368 75.8882 103.402 78.4314 107.083C80.9746 110.764 84.7983 113.408 89.1857 114.52V119.659C89.1857 124.505 91.1472 129.153 94.6386 132.579C98.13 136.006 102.865 137.931 107.803 137.931H126.42V152.207C122.033 153.319 118.209 155.963 115.666 159.644C113.123 163.325 112.035 167.79 112.606 172.202C113.177 176.613 115.368 180.67 118.768 183.61C122.168 186.55 126.543 188.172 131.075 188.172C135.606 188.172 139.982 186.55 143.382 183.61C146.782 180.67 148.973 176.613 149.544 172.202C150.115 167.79 149.027 163.325 146.483 159.644C143.94 155.963 140.116 153.319 135.729 152.207V137.931H154.346C159.284 137.931 164.019 136.006 167.511 132.579C171.002 129.153 172.964 124.505 172.964 119.659V114.52C176.959 113.501 180.496 111.211 183.023 108.008C185.55 104.804 186.923 100.869 186.927 96.818ZM84.5314 96.818C84.5314 95.0111 85.0773 93.2447 86.1002 91.7422C87.123 90.2397 88.5768 89.0687 90.2778 88.3772C91.9787 87.6857 93.8504 87.5048 95.6561 87.8573C97.4618 88.2098 99.1204 89.08 100.422 90.3577C101.724 91.6355 102.611 93.2634 102.97 95.0356C103.329 96.8079 103.145 98.6449 102.44 100.314C101.736 101.984 100.542 103.411 99.0116 104.415C97.4808 105.418 95.6811 105.954 93.84 105.954C91.3712 105.954 89.0035 104.992 87.2578 103.278C85.5121 101.565 84.5314 99.2411 84.5314 96.818ZM140.383 169.908C140.383 171.715 139.837 173.482 138.815 174.984C137.792 176.487 136.338 177.658 134.637 178.349C132.936 179.041 131.064 179.222 129.259 178.869C127.453 178.517 125.794 177.646 124.492 176.369C123.191 175.091 122.304 173.463 121.945 171.691C121.586 169.918 121.77 168.081 122.475 166.412C123.179 164.743 124.372 163.316 125.903 162.312C127.434 161.308 129.234 160.772 131.075 160.772C133.543 160.772 135.911 161.735 137.657 163.448C139.403 165.161 140.383 167.485 140.383 169.908ZM168.309 105.954C166.468 105.954 164.669 105.418 163.138 104.415C161.607 103.411 160.414 101.984 159.709 100.314C159.005 98.6449 158.82 96.8079 159.18 95.0356C159.539 93.2634 160.425 91.6355 161.727 90.3577C163.029 89.08 164.688 88.2098 166.493 87.8573C168.299 87.5048 170.171 87.6857 171.872 88.3772C173.573 89.0687 175.026 90.2397 176.049 91.7422C177.072 93.2447 177.618 95.0111 177.618 96.818C177.618 99.2411 176.637 101.565 174.892 103.278C173.146 104.992 170.778 105.954 168.309 105.954Z" fill="#DB01FF"/>
</svg>
