<svg width="251" height="251" viewBox="0 0 251 251" fill="none" xmlns="http://www.w3.org/2000/svg">
<rect width="250.664" height="250.664" rx="16" fill="#FF7A00" fill-opacity="0.2"/>
<path d="M182.107 91.1724L131.844 63.6704C130.501 62.9283 128.991 62.5391 127.457 62.5391C125.923 62.5391 124.413 62.9283 123.07 63.6704L72.8069 91.1839C71.3714 91.9693 70.1732 93.1256 69.3373 94.5322C68.5013 95.9388 68.0584 97.5441 68.0547 99.1803V153.807C68.0584 155.444 68.5013 157.049 69.3373 158.456C70.1732 159.862 71.3714 161.019 72.8069 161.804L123.07 189.317C124.413 190.059 125.923 190.449 127.457 190.449C128.991 190.449 130.501 190.059 131.844 189.317L182.107 161.804C183.542 161.019 184.741 159.862 185.577 158.456C186.412 157.049 186.855 155.444 186.859 153.807V99.186C186.858 97.5469 186.417 95.9381 185.581 94.5282C184.745 93.1183 183.545 91.9592 182.107 91.1724ZM177.72 153.813L127.457 181.332L77.1935 153.813V99.186L127.457 71.6668L177.72 99.1803V153.813Z" fill="#FF7A00"/>
</svg>
