<svg width="26" height="26" viewBox="0 0 26 26" fill="none" xmlns="http://www.w3.org/2000/svg">
<g id="SunDim">
<rect width="26" height="26" rx="10" fill="white"/>
<path id="Vector" d="M12.3906 4.0625V3.25C12.3906 3.08838 12.4548 2.93339 12.5691 2.81911C12.6834 2.70483 12.8384 2.64063 13 2.64062C13.1616 2.64062 13.3166 2.70483 13.4309 2.81911C13.5452 2.93339 13.6094 3.08838 13.6094 3.25V4.0625C13.6094 4.22412 13.5452 4.37911 13.4309 4.49339C13.3166 4.60767 13.1616 4.67188 13 4.67188C12.8384 4.67188 12.6834 4.60767 12.5691 4.49339C12.4548 4.37911 12.3906 4.22412 12.3906 4.0625ZM19.2969 13C19.2969 14.2454 18.9276 15.4628 18.2357 16.4984C17.5438 17.5339 16.5603 18.341 15.4097 18.8176C14.2591 19.2941 12.993 19.4188 11.7715 19.1759C10.5501 18.9329 9.42807 18.3332 8.54744 17.4526C7.6668 16.5719 7.06708 15.4499 6.82412 14.2285C6.58115 13.007 6.70585 11.7409 7.18245 10.5903C7.65904 9.43969 8.46613 8.45625 9.50164 7.76434C10.5372 7.07243 11.7546 6.70312 13 6.70312C14.6695 6.70501 16.27 7.36903 17.4505 8.54951C18.631 9.73 19.295 11.3305 19.2969 13ZM18.0781 13C18.0781 11.9956 17.7803 11.0138 17.2223 10.1787C16.6643 9.34365 15.8712 8.69278 14.9433 8.30842C14.0154 7.92407 12.9944 7.82351 12.0093 8.01945C11.0242 8.21539 10.1194 8.69903 9.40922 9.40922C8.69903 10.1194 8.21539 11.0242 8.01945 12.0093C7.82351 12.9944 7.92407 14.0154 8.30842 14.9433C8.69278 15.8712 9.34365 16.6643 10.1787 17.2223C11.0138 17.7803 11.9956 18.0781 13 18.0781C14.3463 18.0765 15.637 17.541 16.589 16.589C17.541 15.637 18.0765 14.3463 18.0781 13ZM6.06937 6.93062C6.12516 6.9905 6.19244 7.03852 6.26719 7.07182C6.34194 7.10513 6.42263 7.12304 6.50445 7.12448C6.58627 7.12592 6.66755 7.11087 6.74342 7.08022C6.8193 7.04958 6.88823 7.00396 6.94609 6.94609C7.00396 6.88823 7.04958 6.8193 7.08022 6.74342C7.11087 6.66755 7.12592 6.58627 7.12448 6.50445C7.12304 6.42263 7.10513 6.34194 7.07182 6.26719C7.03852 6.19244 6.9905 6.12516 6.93062 6.06937L6.11813 5.25687C6.00261 5.14923 5.84982 5.09063 5.69195 5.09342C5.53408 5.09621 5.38346 5.16016 5.27181 5.27181C5.16016 5.38346 5.09621 5.53408 5.09342 5.69195C5.09063 5.84982 5.14923 6.00261 5.25687 6.11813L6.06937 6.93062ZM6.06937 19.0694L5.25687 19.8819C5.197 19.9377 5.14898 20.0049 5.11568 20.0797C5.08237 20.1544 5.06446 20.2351 5.06302 20.317C5.06158 20.3988 5.07663 20.48 5.10728 20.5559C5.13792 20.6318 5.18354 20.7007 5.24141 20.7586C5.29927 20.8165 5.3682 20.8621 5.44408 20.8927C5.51995 20.9234 5.60123 20.9384 5.68305 20.937C5.76487 20.9355 5.84556 20.9176 5.92031 20.8843C5.99506 20.851 6.06234 20.803 6.11813 20.7431L6.93062 19.9306C6.9905 19.8748 7.03852 19.8076 7.07182 19.7328C7.10513 19.6581 7.12304 19.5774 7.12448 19.4955C7.12592 19.4137 7.11087 19.3325 7.08022 19.2566C7.04958 19.1807 7.00396 19.1118 6.94609 19.0539C6.88823 18.996 6.8193 18.9504 6.74342 18.9198C6.66755 18.8891 6.58627 18.8741 6.50445 18.8755C6.42263 18.877 6.34194 18.8949 6.26719 18.9282C6.19244 18.9615 6.12516 19.0095 6.06937 19.0694ZM19.8819 5.25687L19.0694 6.06937C19.0095 6.12516 18.9615 6.19244 18.9282 6.26719C18.8949 6.34194 18.877 6.42263 18.8755 6.50445C18.8741 6.58627 18.8891 6.66755 18.9198 6.74342C18.9504 6.8193 18.996 6.88823 19.0539 6.94609C19.1118 7.00396 19.1807 7.04958 19.2566 7.08022C19.3325 7.11087 19.4137 7.12592 19.4955 7.12448C19.5774 7.12304 19.6581 7.10513 19.7328 7.07182C19.8076 7.03852 19.8748 6.9905 19.9306 6.93062L20.7431 6.11813C20.8508 6.00261 20.9094 5.84982 20.9066 5.69195C20.9038 5.53408 20.8398 5.38346 20.7282 5.27181C20.6165 5.16016 20.4659 5.09621 20.308 5.09342C20.1502 5.09063 19.9974 5.14923 19.8819 5.25687ZM19.9306 19.0694C19.8151 18.9617 19.6623 18.9031 19.5045 18.9059C19.3466 18.9087 19.196 18.9727 19.0843 19.0843C18.9727 19.196 18.9087 19.3466 18.9059 19.5045C18.9031 19.6623 18.9617 19.8151 19.0694 19.9306L19.8819 20.7431C19.9974 20.8508 20.1502 20.9094 20.308 20.9066C20.4659 20.9038 20.6165 20.8398 20.7282 20.7282C20.8398 20.6165 20.9038 20.4659 20.9066 20.308C20.9094 20.1502 20.8508 19.9974 20.7431 19.8819L19.9306 19.0694ZM4.0625 12.3906H3.25C3.08838 12.3906 2.93339 12.4548 2.81911 12.5691C2.70483 12.6834 2.64062 12.8384 2.64062 13C2.64062 13.1616 2.70483 13.3166 2.81911 13.4309C2.93339 13.5452 3.08838 13.6094 3.25 13.6094H4.0625C4.22412 13.6094 4.37911 13.5452 4.49339 13.4309C4.60767 13.3166 4.67188 13.1616 4.67188 13C4.67188 12.8384 4.60767 12.6834 4.49339 12.5691C4.37911 12.4548 4.22412 12.3906 4.0625 12.3906ZM13 21.3281C12.8384 21.3281 12.6834 21.3923 12.5691 21.5066C12.4548 21.6209 12.3906 21.7759 12.3906 21.9375V22.75C12.3906 22.9116 12.4548 23.0666 12.5691 23.1809C12.6834 23.2952 12.8384 23.3594 13 23.3594C13.1616 23.3594 13.3166 23.2952 13.4309 23.1809C13.5452 23.0666 13.6094 22.9116 13.6094 22.75V21.9375C13.6094 21.7759 13.5452 21.6209 13.4309 21.5066C13.3166 21.3923 13.1616 21.3281 13 21.3281ZM22.75 12.3906H21.9375C21.7759 12.3906 21.6209 12.4548 21.5066 12.5691C21.3923 12.6834 21.3281 12.8384 21.3281 13C21.3281 13.1616 21.3923 13.3166 21.5066 13.4309C21.6209 13.5452 21.7759 13.6094 21.9375 13.6094H22.75C22.9116 13.6094 23.0666 13.5452 23.1809 13.4309C23.2952 13.3166 23.3594 13.1616 23.3594 13C23.3594 12.8384 23.2952 12.6834 23.1809 12.5691C23.0666 12.4548 22.9116 12.3906 22.75 12.3906Z" fill="#FFA726"/>
</g>
</svg>
