<svg width="21" height="20" viewBox="0 0 21 20" fill="grey" xmlns="http://www.w3.org/2000/svg">
<g id="Access time" clip-path="url(#clip0_6505_170950)">
<path id="Vector" d="M10.491 1.66406C5.89101 1.66406 2.16602 5.3974 2.16602 9.99739C2.16602 14.5974 5.89101 18.3307 10.491 18.3307C15.0993 18.3307 18.8327 14.5974 18.8327 9.99739C18.8327 5.3974 15.0993 1.66406 10.491 1.66406ZM10.4993 16.6641C6.81601 16.6641 3.83268 13.6807 3.83268 9.99739C3.83268 6.31406 6.81601 3.33073 10.4993 3.33073C14.1827 3.33073 17.166 6.31406 17.166 9.99739C17.166 13.6807 14.1827 16.6641 10.4993 16.6641ZM10.916 5.83073H9.66601V10.8307L14.041 13.4557L14.666 12.4307L10.916 10.2057V5.83073Z" fill="grey"/>
</g>
<defs>
<clipPath id="clip0_6505_170950">
<rect width="20" height="20" fill="grey" transform="translate(0.5)"/>
</clipPath>
</defs>
</svg>
