<svg width="251" height="251" viewBox="0 0 251 251" fill="none" xmlns="http://www.w3.org/2000/svg">
<rect width="250.664" height="250.664" rx="16" fill="#FFE351" fill-opacity="0.2"/>
<path d="M125.694 61.4688C111.709 61.4846 98.3017 66.9927 88.4128 76.7846C78.5239 86.5766 72.9613 99.8528 72.9453 113.701C72.9453 126.759 79.8467 143.658 91.413 158.86C103.051 174.176 115.864 183.343 125.694 183.343C135.524 183.343 148.338 174.197 159.976 158.86C171.542 143.625 178.444 126.759 178.444 113.701C178.428 99.8528 172.865 86.5766 162.976 76.7846C153.087 66.9927 139.679 61.4846 125.694 61.4688ZM152.954 153.647C143.409 166.199 132.458 174.638 125.694 174.638C118.93 174.638 107.98 166.199 98.4352 153.647C88.1382 140.089 81.7368 124.784 81.7368 113.701C81.7368 102.157 86.3681 91.0856 94.6117 82.9227C102.855 74.7599 114.036 70.1741 125.694 70.1741C137.353 70.1741 148.533 74.7599 156.777 82.9227C165.021 91.0856 169.652 102.157 169.652 113.701C169.652 124.784 163.251 140.089 152.954 153.647ZM121.299 126.759C121.299 120.987 118.983 115.451 114.861 111.37C110.739 107.288 105.149 104.995 99.3199 104.995C96.9882 104.995 94.7521 105.913 93.1033 107.545C91.4546 109.178 90.5283 111.392 90.5283 113.701C90.5283 119.473 92.844 125.008 96.9658 129.09C101.088 133.171 106.678 135.464 112.507 135.464C114.839 135.464 117.075 134.547 118.724 132.914C120.372 131.282 121.299 129.067 121.299 126.759ZM99.3199 113.701C102.817 113.701 106.172 115.076 108.645 117.525C111.118 119.974 112.507 123.295 112.507 126.759C109.01 126.759 105.655 125.383 103.182 122.934C100.709 120.485 99.3199 117.164 99.3199 113.701ZM152.069 104.995C146.24 104.995 140.649 107.288 136.528 111.37C132.406 115.451 130.09 120.987 130.09 126.759C130.09 129.067 131.016 131.282 132.665 132.914C134.314 134.547 136.55 135.464 138.882 135.464C141.768 135.464 144.626 134.901 147.293 133.807C149.959 132.714 152.382 131.111 154.423 129.09C156.464 127.069 158.083 124.67 159.187 122.029C160.292 119.389 160.86 116.559 160.86 113.701C160.86 111.392 159.934 109.178 158.285 107.545C156.637 105.913 154.401 104.995 152.069 104.995ZM138.882 126.759C138.882 123.295 140.271 119.974 142.744 117.525C145.217 115.076 148.571 113.701 152.069 113.701C152.069 117.164 150.68 120.485 148.206 122.934C145.733 125.383 142.379 126.759 138.882 126.759ZM138.882 152.875C138.882 154.029 138.419 155.136 137.594 155.952C136.77 156.769 135.652 157.227 134.486 157.227H116.903C115.737 157.227 114.619 156.769 113.795 155.952C112.97 155.136 112.507 154.029 112.507 152.875C112.507 151.72 112.97 150.613 113.795 149.797C114.619 148.981 115.737 148.522 116.903 148.522H134.486C135.652 148.522 136.77 148.981 137.594 149.797C138.419 150.613 138.882 151.72 138.882 152.875Z" fill="#FFE351"/>
</svg>
