<svg width="251" height="251" viewBox="0 0 251 251" fill="none" xmlns="http://www.w3.org/2000/svg">
<rect x="0.117188" y="0.0546875" width="250.664" height="250.664" rx="16" fill="#FFAC30" fill-opacity="0.2"/>
<path d="M112.414 64.0117C112.414 62.6059 112.959 61.2576 113.929 60.2635C114.899 59.2694 116.214 58.7109 117.586 58.7109L138.272 58.7109C139.643 58.7109 140.959 59.2694 141.929 60.2635C142.898 61.2576 143.443 62.6059 143.443 64.0117C143.443 65.4176 142.898 66.7658 141.929 67.7599C140.959 68.754 139.643 69.3125 138.272 69.3125H117.586C116.214 69.3125 114.899 68.754 113.929 67.7599C112.959 66.7658 112.414 65.4176 112.414 64.0117ZM138.272 175.328H117.586C116.214 175.328 114.899 175.886 113.929 176.88C112.959 177.874 112.414 179.223 112.414 180.629C112.414 182.034 112.959 183.383 113.929 184.377C114.899 185.371 116.214 185.929 117.586 185.929H138.272C139.643 185.929 140.959 185.371 141.929 184.377C142.898 183.383 143.443 182.034 143.443 180.629C143.443 179.223 142.898 177.874 141.929 176.88C140.959 175.886 139.643 175.328 138.272 175.328ZM179.644 58.7109H164.129C162.758 58.7109 161.442 59.2694 160.472 60.2635C159.503 61.2576 158.958 62.6059 158.958 64.0117C158.958 65.4176 159.503 66.7658 160.472 67.7599C161.442 68.754 162.758 69.3125 164.129 69.3125H179.644V85.2148C179.644 86.6206 180.189 87.9689 181.158 88.963C182.128 89.9571 183.444 90.5155 184.815 90.5155C186.187 90.5155 187.502 89.9571 188.472 88.963C189.442 87.9689 189.987 86.6206 189.987 85.2148V69.3125C189.987 66.5008 188.897 63.8042 186.957 61.8161C185.018 59.8279 182.387 58.7109 179.644 58.7109ZM184.815 106.418C183.444 106.418 182.128 106.976 181.158 107.97C180.189 108.964 179.644 110.313 179.644 111.719V132.922C179.644 134.328 180.189 135.676 181.158 136.67C182.128 137.664 183.444 138.222 184.815 138.222C186.187 138.222 187.502 137.664 188.472 136.67C189.442 135.676 189.987 134.328 189.987 132.922V111.719C189.987 110.313 189.442 108.964 188.472 107.97C187.502 106.976 186.187 106.418 184.815 106.418ZM184.815 154.125C183.444 154.125 182.128 154.683 181.158 155.677C180.189 156.671 179.644 158.02 179.644 159.426V175.328H164.129C162.758 175.328 161.442 175.886 160.472 176.88C159.503 177.874 158.958 179.223 158.958 180.629C158.958 182.034 159.503 183.383 160.472 184.377C161.442 185.371 162.758 185.929 164.129 185.929H179.644C182.387 185.929 185.018 184.812 186.957 182.824C188.897 180.836 189.987 178.14 189.987 175.328V159.426C189.987 158.02 189.442 156.671 188.472 155.677C187.502 154.683 186.187 154.125 184.815 154.125ZM71.0426 138.222C72.4141 138.222 73.7295 137.664 74.6994 136.67C75.6692 135.676 76.2141 134.328 76.2141 132.922V111.719C76.2141 110.313 75.6692 108.964 74.6994 107.97C73.7295 106.976 72.4141 106.418 71.0426 106.418C69.671 106.418 68.3556 106.976 67.3858 107.97C66.4159 108.964 65.8711 110.313 65.8711 111.719V132.922C65.8711 134.328 66.4159 135.676 67.3858 136.67C68.3556 137.664 69.671 138.222 71.0426 138.222ZM91.7285 175.328H76.2141V159.426C76.2141 158.02 75.6692 156.671 74.6994 155.677C73.7295 154.683 72.4141 154.125 71.0426 154.125C69.671 154.125 68.3556 154.683 67.3858 155.677C66.4159 156.671 65.8711 158.02 65.8711 159.426V175.328C65.8711 178.14 66.9608 180.836 68.9005 182.824C70.8402 184.812 73.4709 185.929 76.2141 185.929H91.7285C93.1001 185.929 94.4154 185.371 95.3853 184.377C96.3551 183.383 96.9 182.034 96.9 180.629C96.9 179.223 96.3551 177.874 95.3853 176.88C94.4154 175.886 93.1001 175.328 91.7285 175.328ZM71.0426 90.5155C72.4141 90.5155 73.7295 89.9571 74.6994 88.963C75.6692 87.9689 76.2141 86.6206 76.2141 85.2148V69.3125H91.7285C93.1001 69.3125 94.4154 68.754 95.3853 67.7599C96.3551 66.7658 96.9 65.4176 96.9 64.0117C96.9 62.6059 96.3551 61.2576 95.3853 60.2635C94.4154 59.2694 93.1001 58.7109 91.7285 58.7109H76.2141C73.4709 58.7109 70.8402 59.8279 68.9005 61.8161C66.9608 63.8042 65.8711 66.5008 65.8711 69.3125V85.2148C65.8711 86.6206 66.4159 87.9689 67.3858 88.963C68.3556 89.9571 69.671 90.5155 71.0426 90.5155ZM158.958 159.426H96.9C95.5284 159.426 94.213 158.867 93.2432 157.873C92.2733 156.879 91.7285 155.531 91.7285 154.125V90.5155C91.7285 89.1097 92.2733 87.7614 93.2432 86.7673C94.213 85.7732 95.5284 85.2148 96.9 85.2148H158.958C160.329 85.2148 161.645 85.7732 162.615 86.7673C163.584 87.7614 164.129 89.1097 164.129 90.5155V154.125C164.129 155.531 163.584 156.879 162.615 157.873C161.645 158.867 160.329 159.426 158.958 159.426ZM153.786 95.8163H102.071V148.824H153.786V95.8163Z" fill="#FFAC30"/>
</svg>
