<svg width="251" height="251" viewBox="0 0 251 251" fill="none" xmlns="http://www.w3.org/2000/svg">
<rect width="250.664" height="250.664" rx="16" fill="#FF005C" fill-opacity="0.2"/>
<path d="M174.263 131.058C171.255 119.484 164.028 109.419 153.972 102.797H183.848C184.923 102.797 185.953 102.375 186.713 101.624C187.473 100.872 187.899 99.8525 187.899 98.7896C187.899 97.7266 187.473 96.7072 186.713 95.9556C185.953 95.2039 184.923 94.7817 183.848 94.7817H142.832C141.94 91.3332 139.913 88.2767 137.07 86.094C134.228 83.9113 130.732 82.7266 127.134 82.7266C123.536 82.7266 120.041 83.9113 117.199 86.094C114.356 88.2767 112.329 91.3332 111.437 94.7817H70.4206C69.3462 94.7817 68.3158 95.2039 67.5561 95.9556C66.7964 96.7072 66.3696 97.7266 66.3696 98.7896C66.3696 99.8525 66.7964 100.872 67.5561 101.624C68.3158 102.375 69.3462 102.797 70.4206 102.797H100.297C90.2409 109.419 83.0142 119.484 80.0062 131.058C76.1166 131.672 72.5862 133.667 70.0752 136.669C67.5642 139.672 66.2445 143.476 66.3628 147.371C66.4811 151.266 68.0294 154.985 70.7181 157.833C73.4069 160.681 77.052 162.462 80.9718 162.844C84.8917 163.226 88.8179 162.182 92.0163 159.908C95.2147 157.633 97.4664 154.284 98.3502 150.487C99.234 146.689 98.6895 142.703 96.8185 139.274C94.9475 135.845 91.8781 133.207 88.1842 131.855C89.9235 125.922 93.0155 120.462 97.2223 115.897C101.429 111.332 106.639 107.783 112.45 105.523C113.75 108.296 115.824 110.644 118.429 112.29C121.034 113.935 124.059 114.81 127.15 114.81C130.24 114.81 133.266 113.935 135.87 112.29C138.475 110.644 140.55 108.296 141.85 105.523C147.655 107.787 152.859 111.338 157.06 115.903C161.261 120.468 164.349 125.925 166.085 131.855C162.389 133.203 159.316 135.837 157.441 139.263C155.566 142.69 155.016 146.676 155.895 150.474C156.774 154.273 159.022 157.625 162.217 159.903C165.413 162.181 169.338 163.23 173.258 162.853C177.179 162.476 180.826 160.699 183.518 157.854C186.21 155.01 187.763 151.293 187.886 147.397C188.01 143.502 186.694 139.696 184.187 136.691C181.68 133.686 178.152 131.687 174.263 131.068V131.058ZM90.6755 146.884C90.6755 148.47 90.2004 150.019 89.3101 151.338C88.4198 152.656 87.1545 153.683 85.674 154.29C84.1936 154.897 82.5646 155.055 80.9929 154.746C79.4213 154.437 77.9777 153.673 76.8446 152.552C75.7115 151.431 74.9399 150.003 74.6272 148.448C74.3146 146.893 74.4751 145.282 75.0883 143.817C75.7015 142.352 76.74 141.1 78.0723 140.219C79.4047 139.339 80.9711 138.869 82.5735 138.869C84.7223 138.869 86.7831 139.713 88.3025 141.216C89.8219 142.72 90.6755 144.758 90.6755 146.884ZM127.134 106.805C125.532 106.805 123.966 106.335 122.633 105.454C121.301 104.574 120.262 103.322 119.649 101.857C119.036 100.392 118.876 98.7807 119.188 97.2258C119.501 95.6709 120.272 94.2426 121.406 93.1216C122.539 92.0005 123.982 91.2371 125.554 90.9278C127.125 90.6185 128.755 90.7773 130.235 91.384C131.715 91.9907 132.981 93.0181 133.871 94.3363C134.761 95.6544 135.236 97.2042 135.236 98.7896C135.236 100.916 134.383 102.954 132.863 104.458C131.344 105.961 129.283 106.805 127.134 106.805ZM171.695 154.9C170.093 154.9 168.527 154.43 167.194 153.549C165.862 152.668 164.823 151.417 164.21 149.952C163.597 148.487 163.436 146.875 163.749 145.321C164.062 143.766 164.833 142.337 165.966 141.216C167.1 140.095 168.543 139.332 170.115 139.023C171.686 138.713 173.315 138.872 174.796 139.479C176.276 140.085 177.542 141.113 178.432 142.431C179.322 143.749 179.797 145.299 179.797 146.884C179.797 149.01 178.944 151.049 177.424 152.552C175.905 154.056 173.844 154.9 171.695 154.9Z" fill="#FF0000"/>
</svg>
