<svg width="251" height="251" viewBox="0 0 251 251" fill="none" xmlns="http://www.w3.org/2000/svg">
<rect width="250.664" height="250.664" rx="16" fill="#0000FF" fill-opacity="0.2"/>
<path d="M195.996 123.406C196.001 118.012 194.655 112.699 192.075 107.936C189.495 103.173 185.762 99.1063 181.204 96.0947C176.647 93.0831 171.404 91.2189 165.94 90.6665C160.475 90.1141 154.956 90.8905 149.869 92.9271C144.782 94.9637 140.283 98.1981 136.77 102.345C133.256 106.492 130.836 111.424 129.721 116.707C128.607 121.989 128.834 127.46 130.381 132.636C131.928 137.812 134.748 142.535 138.593 146.388V179.775C138.592 180.576 138.8 181.364 139.197 182.064C139.594 182.764 140.167 183.353 140.861 183.774C141.554 184.195 142.346 184.435 143.161 184.471C143.976 184.507 144.787 184.338 145.517 183.979L162.511 175.63L179.504 183.979C180.234 184.338 181.045 184.507 181.86 184.471C182.675 184.435 183.467 184.195 184.161 183.774C184.855 183.353 185.427 182.764 185.824 182.064C186.221 181.364 186.429 180.576 186.429 179.775V146.388C192.564 140.256 196 132.003 195.996 123.406ZM162.511 99.9189C167.241 99.9189 171.866 101.296 175.799 103.877C179.732 106.458 182.798 110.126 184.608 114.418C186.418 118.71 186.892 123.432 185.969 127.988C185.046 132.544 182.768 136.729 179.423 140.014C176.078 143.299 171.817 145.536 167.177 146.442C162.537 147.348 157.728 146.883 153.358 145.105C148.987 143.328 145.252 140.317 142.624 136.455C139.995 132.592 138.593 128.051 138.593 123.406C138.593 117.177 141.113 111.203 145.598 106.798C150.084 102.393 156.167 99.9189 162.511 99.9189ZM164.651 166.176C163.987 165.85 163.254 165.68 162.511 165.68C161.768 165.68 161.035 165.85 160.37 166.176L148.16 172.177V153.111C152.644 155.203 157.546 156.288 162.511 156.288C167.475 156.288 172.377 155.203 176.862 153.111V172.177L164.651 166.176ZM129.025 160.986C129.025 162.231 128.521 163.426 127.624 164.307C126.727 165.188 125.51 165.683 124.242 165.683H71.6219C69.0845 165.683 66.6511 164.693 64.8569 162.931C63.0627 161.169 62.0547 158.78 62.0547 156.288L62.0547 81.1292C62.0547 78.6376 63.0627 76.2479 64.8569 74.4861C66.6511 72.7242 69.0845 71.7344 71.6219 71.7344H176.862C179.399 71.7344 181.832 72.7242 183.627 74.4861C185.421 76.2479 186.429 78.6376 186.429 81.1292C186.429 82.3751 185.925 83.5699 185.028 84.4508C184.131 85.3318 182.914 85.8267 181.645 85.8267C180.376 85.8267 179.16 85.3318 178.263 84.4508C177.366 83.5699 176.862 82.3751 176.862 81.1292H71.6219V156.288H124.242C125.51 156.288 126.727 156.783 127.624 157.664C128.521 158.545 129.025 159.74 129.025 160.986ZM119.458 128.104C119.458 129.349 118.954 130.544 118.057 131.425C117.16 132.306 115.943 132.801 114.674 132.801H90.7564C89.4877 132.801 88.271 132.306 87.3739 131.425C86.4768 130.544 85.9728 129.349 85.9728 128.104C85.9728 126.858 86.4768 125.663 87.3739 124.782C88.271 123.901 89.4877 123.406 90.7564 123.406H114.674C115.943 123.406 117.16 123.901 118.057 124.782C118.954 125.663 119.458 126.858 119.458 128.104ZM119.458 109.314C119.458 110.56 118.954 111.754 118.057 112.635C117.16 113.516 115.943 114.011 114.674 114.011H90.7564C89.4877 114.011 88.271 113.516 87.3739 112.635C86.4768 111.754 85.9728 110.56 85.9728 109.314C85.9728 108.068 86.4768 106.873 87.3739 105.992C88.271 105.111 89.4877 104.616 90.7564 104.616H114.674C115.943 104.616 117.16 105.111 118.057 105.992C118.954 106.873 119.458 108.068 119.458 109.314Z" fill="#0000FF"/>
</svg>
