<svg width="251" height="251" viewBox="0 0 251 251" fill="none" xmlns="http://www.w3.org/2000/svg">
<rect width="250.664" height="250.664" rx="16" fill="#FF005C" fill-opacity="0.2"/>
<path d="M167.646 94.1841C157.528 84.2683 143.86 78.7121 129.621 78.7266H129.062C114.746 78.8724 101.067 84.6031 90.996 94.6737C80.9252 104.744 75.2766 118.341 75.2773 132.51C75.2773 154.747 89.1663 173.396 111.52 181.21C114.042 182.09 116.739 182.358 119.387 181.993C122.035 181.628 124.556 180.64 126.738 179.112C128.92 177.584 130.701 175.56 131.93 173.21C133.159 170.86 133.8 168.253 133.801 165.607C133.801 163.413 134.682 161.308 136.25 159.757C137.818 158.205 139.944 157.333 142.162 157.333H166.308C170.101 157.351 173.786 156.085 176.752 153.745C179.717 151.404 181.785 148.13 182.611 144.466C183.546 140.395 184 136.23 183.965 132.055C183.911 124.988 182.442 118.002 179.64 111.501C176.839 105 172.762 99.1142 167.646 94.1841ZM174.439 142.646C174.024 144.471 172.992 146.102 171.513 147.268C170.035 148.434 168.199 149.066 166.308 149.059H142.162C137.727 149.059 133.474 150.802 130.338 153.906C127.202 157.009 125.441 161.218 125.441 165.607C125.439 166.929 125.117 168.231 124.502 169.404C123.888 170.578 122.998 171.588 121.907 172.351C120.817 173.114 119.558 173.608 118.235 173.79C116.913 173.973 115.565 173.84 114.305 173.401C95.3897 166.797 83.6379 151.127 83.6379 132.51C83.6373 120.521 88.4166 109.017 96.9375 100.495C105.458 91.9743 117.033 87.1249 129.145 87.001H129.616C141.729 87.0475 153.339 91.8041 161.941 100.245C170.543 108.686 175.448 120.135 175.599 132.122C175.63 135.662 175.248 139.193 174.46 142.646H174.439ZM135.891 105.618C135.891 106.846 135.524 108.045 134.835 109.066C134.146 110.087 133.166 110.882 132.021 111.352C130.875 111.821 129.614 111.944 128.398 111.705C127.181 111.465 126.064 110.874 125.187 110.006C124.31 109.139 123.713 108.033 123.471 106.829C123.229 105.625 123.353 104.377 123.828 103.243C124.302 102.109 125.106 101.14 126.137 100.458C127.168 99.7765 128.381 99.4125 129.621 99.4125C131.284 99.4125 132.879 100.066 134.055 101.23C135.231 102.394 135.891 103.972 135.891 105.618ZM112.9 118.03C112.9 119.257 112.532 120.457 111.843 121.478C111.154 122.498 110.175 123.294 109.029 123.763C107.883 124.233 106.622 124.356 105.406 124.116C104.19 123.877 103.073 123.286 102.196 122.418C101.319 121.55 100.721 120.444 100.48 119.241C100.238 118.037 100.362 116.789 100.836 115.655C101.311 114.521 102.115 113.552 103.146 112.87C104.177 112.188 105.389 111.824 106.629 111.824C108.292 111.824 109.887 112.478 111.063 113.642C112.239 114.806 112.9 116.384 112.9 118.03ZM112.9 146.99C112.9 148.218 112.532 149.417 111.843 150.438C111.154 151.458 110.175 152.254 109.029 152.724C107.883 153.193 106.622 153.316 105.406 153.077C104.19 152.837 103.073 152.246 102.196 151.378C101.319 150.51 100.721 149.405 100.48 148.201C100.238 146.997 100.362 145.749 100.836 144.615C101.311 143.481 102.115 142.512 103.146 141.83C104.177 141.148 105.389 140.784 106.629 140.784C108.292 140.784 109.887 141.438 111.063 142.602C112.239 143.766 112.9 145.344 112.9 146.99ZM158.883 118.03C158.883 119.257 158.515 120.457 157.826 121.478C157.137 122.498 156.158 123.294 155.012 123.763C153.866 124.233 152.606 124.356 151.389 124.116C150.173 123.877 149.056 123.286 148.179 122.418C147.302 121.55 146.705 120.444 146.463 119.241C146.221 118.037 146.345 116.789 146.819 115.655C147.294 114.521 148.098 113.552 149.129 112.87C150.16 112.188 151.372 111.824 152.613 111.824C154.276 111.824 155.87 112.478 157.046 113.642C158.222 114.806 158.883 116.384 158.883 118.03Z" fill="#FF005C"/>
</svg>
