<svg width="251" height="251" viewBox="0 0 251 251" fill="none" xmlns="http://www.w3.org/2000/svg">
<rect width="250.664" height="250.664" rx="16" fill="#B1FF0C" fill-opacity="0.2"/>
<path d="M74.0576 84.6146C74.0576 83.2659 74.5843 81.9724 75.5218 81.0188C76.4593 80.0651 77.7309 79.5293 79.0567 79.5293H89.0549V69.3587C89.0549 68.01 89.5816 66.7166 90.5191 65.7629C91.4566 64.8092 92.7282 64.2734 94.054 64.2734C95.3799 64.2734 96.6514 64.8092 97.5889 65.7629C98.5264 66.7166 99.0531 68.01 99.0531 69.3587V79.5293H109.051C110.377 79.5293 111.649 80.0651 112.586 81.0188C113.524 81.9724 114.05 83.2659 114.05 84.6146C114.05 85.9633 113.524 87.2568 112.586 88.2104C111.649 89.1641 110.377 89.6999 109.051 89.6999H99.0531V99.8705C99.0531 101.219 98.5264 102.513 97.5889 103.466C96.6514 104.42 95.3799 104.956 94.054 104.956C92.7282 104.956 91.4566 104.42 90.5191 103.466C89.5816 102.513 89.0549 101.219 89.0549 99.8705V89.6999H79.0567C77.7309 89.6999 76.4593 89.1641 75.5218 88.2104C74.5843 87.2568 74.0576 85.9633 74.0576 84.6146ZM159.042 165.979H154.043V160.894C154.043 159.545 153.516 158.252 152.579 157.298C151.641 156.344 150.37 155.809 149.044 155.809C147.718 155.809 146.447 156.344 145.509 157.298C144.572 158.252 144.045 159.545 144.045 160.894V165.979H139.046C137.72 165.979 136.448 166.515 135.511 167.469C134.573 168.422 134.047 169.716 134.047 171.065C134.047 172.413 134.573 173.707 135.511 174.66C136.448 175.614 137.72 176.15 139.046 176.15H144.045V181.235C144.045 182.584 144.572 183.877 145.509 184.831C146.447 185.785 147.718 186.32 149.044 186.32C150.37 186.32 151.641 185.785 152.579 184.831C153.516 183.877 154.043 182.584 154.043 181.235V176.15H159.042C160.368 176.15 161.64 175.614 162.577 174.66C163.515 173.707 164.041 172.413 164.041 171.065C164.041 169.716 163.515 168.422 162.577 167.469C161.64 166.515 160.368 165.979 159.042 165.979ZM194.036 135.467H184.038V125.297C184.038 123.948 183.511 122.655 182.574 121.701C181.636 120.747 180.365 120.212 179.039 120.212C177.713 120.212 176.441 120.747 175.504 121.701C174.566 122.655 174.04 123.948 174.04 125.297V135.467H164.041C162.716 135.467 161.444 136.003 160.506 136.957C159.569 137.911 159.042 139.204 159.042 140.553C159.042 141.901 159.569 143.195 160.506 144.149C161.444 145.102 162.716 145.638 164.041 145.638H174.04V155.809C174.04 157.157 174.566 158.451 175.504 159.404C176.441 160.358 177.713 160.894 179.039 160.894C180.365 160.894 181.636 160.358 182.574 159.404C183.511 158.451 184.038 157.157 184.038 155.809V145.638H194.036C195.362 145.638 196.633 145.102 197.571 144.149C198.508 143.195 199.035 141.901 199.035 140.553C199.035 139.204 198.508 137.911 197.571 136.957C196.633 136.003 195.362 135.467 194.036 135.467ZM181.107 94.7852L94.054 183.339C92.1792 185.245 89.6371 186.316 86.9865 186.316C84.336 186.316 81.7939 185.245 79.9191 183.339L66.9839 170.194C66.0552 169.249 65.3186 168.128 64.816 166.894C64.3134 165.66 64.0547 164.337 64.0547 163.001C64.0547 161.665 64.3134 160.343 64.816 159.108C65.3186 157.874 66.0552 156.753 66.9839 155.809L154.043 67.2547C154.972 66.31 156.074 65.5607 157.287 65.0494C158.5 64.5381 159.801 64.275 161.114 64.275C162.427 64.275 163.727 64.5381 164.94 65.0494C166.154 65.5607 167.256 66.31 168.184 67.2547L181.107 80.4002C182.036 81.3446 182.772 82.4659 183.275 83.7C183.778 84.9341 184.036 86.2568 184.036 87.5927C184.036 88.9285 183.778 90.2512 183.275 91.4853C182.772 92.7194 182.036 93.8407 181.107 94.7852ZM146.969 115.126L134.047 101.974L74.0576 162.998L86.9803 176.15L146.969 115.126ZM174.04 87.5958L161.111 74.444L141.114 94.7852L154.043 107.937L174.04 87.5958Z" fill="#B1FF0C"/>
</svg>
