<?xml version="1.0" encoding="utf-8"?>
<!-- Generator: Adobe Illustrator 19.0.0, SVG Export Plug-In . SVG Version: 6.00 Build 0)  -->
<svg version="1.1" id="Layer_1" xmlns="http://www.w3.org/2000/svg" xmlns:xlink="http://www.w3.org/1999/xlink" x="0px" y="0px"
	 viewBox="0 0 512 512" style="enable-background:new 0 0 512 512;" xml:space="preserve">
<style type="text/css">
	.st0{fill:#C0392B;}
	.st1{fill:#E74C3C;}
	.st2{fill:#ECF0F1;}
</style>
<g id="XMLID_1_">
	<path id="XMLID_3_" class="st0" d="M100.3,22c-24.4,0-44.8,19.7-44.8,44.8v177.7v88.9v133.7c0,24.4,19.7,44.8,44.8,44.8h311.4
		c24.4,0,44.8-19.7,44.8-44.8V333.5v-88.9v-88.9L322.9,22H100.3z"/>
	<path id="XMLID_4_" class="st1" d="M100.3,0C75.9,0,55.4,19.7,55.4,44.8v177.7v88.9v133.7c0,24.4,19.7,44.8,44.8,44.8h311.4
		c24.4,0,44.8-19.7,44.8-44.8V311.4v-88.9v-88.9L322.9,0H100.3z"/>
	<path id="XMLID_5_" class="st0" d="M455.8,133.7L322.1,0v88.9c0,24.4,19.7,44.8,44.8,44.8H455.8z"/>
	<path id="XMLID_6_" class="st2" d="M414.1,222.6h-6.3c-2.4,1.6-13.4,17.3-18.1,22c-1.6,2.4-3.1,4.7-4.7,4.7
		c-16.5,19.7-51.9,53.5-72.4,70.8c-3.1,2.4-5.5,4.7-6.3,4.7c-1.6,2.4-15.7,11-22,15.7c-20.4,13.4-44,24.4-62.1,29.1
		c-36.2,8.7-64.5,6.3-101.5-11c-11-4.7-26.7-13.4-35.4-19.7c-8.7-6.3-7.9-6.3-7.9,4.7v11l5.5,2.4c7.1,4.7,23.6,13.4,33.8,18.1
		c7.9,4.7,10.2,6.3,6.3,6.3c-3.9-2.4-26.7-2.4-36.2,0h-8.7c0,0,0,4.7,0,8.7v8.7h3.1c12.6-4.7,40.1-4.7,52.7-2.4
		c14.9,2.4,25.2,4.7,38.5,11c24.4,11,44,33,52.7,55.8l1.6,4.7h9.4h9.4l-0.8-2.4c-3.1-13.4-11.8-29.1-22.8-40.1
		c-7.1-8.7-19.7-18.1-25.2-22h-1.6c-0.8-2.4-9.4-6.3-12.6-6.3c-2.4-2.4-3.9-2.4-3.9-2.4c0-2.4,1.6-2.4,3.1,0
		c4.7,0,23.6-2.4,32.2-4.7c23.6-4.7,46.4-13.4,69.2-26.7c7.9-4.7,26.7-19.7,34.6-24.4c5.5-6.3,7.1-6.3,4.7-4.7
		c-0.8,2.4-2.4,4.7-3.1,6.3c-0.8,2.4-3.1,4.7-3.9,6.3c-17.3,26.7-28.3,59.8-31.5,97.5c-0.8,6.3-0.8,13.4-0.8,15.7v6.3h51.9h51.9
		l-1.6-2.4c-9.4-13.4-21.2-42.5-25.2-62.1c-3.1-15.7-3.9-40.1-2.4-53.5c5.5-35.4,26-66.9,59.8-86.5c3.1-2.4,7.9-4.7,10.2-6.3
		l3.9-2.4V247c0-4.7,0-8.7-0.8-8.7c-7.9,4.7-26,15.7-34.6,19.7c-4.7,4.7-4.7,4.7-0.8,0c6.3-6.3,16.5-18.1,27.5-31.5l4.7-4.7h-11
		h-3.1V222.6z"/>
</g>
</svg>
