<svg width="10" height="12" viewBox="0 0 10 12" fill="none" xmlns="http://www.w3.org/2000/svg">
<path fill-rule="evenodd" clip-rule="evenodd" d="M2.17157 2.17157C2.92172 1.42143 3.93913 1 5 1C6.06087 1 7.07828 1.42143 7.82843 2.17157C8.57857 2.92172 9 3.93913 9 5C9 6.54903 7.99213 8.05212 6.88702 9.21863C6.34469 9.79109 5.80067 10.2597 5.39166 10.5854C5.23944 10.7066 5.10649 10.8076 5 10.8863C4.89351 10.8076 4.76056 10.7066 4.60834 10.5854C4.19933 10.2597 3.65531 9.79109 3.11298 9.21863C2.00787 8.05212 1 6.54903 1 5C1 3.93913 1.42143 2.92172 2.17157 2.17157ZM4.72238 11.9158C4.72252 11.9159 4.72265 11.916 5 11.5L5.27735 11.916C5.1094 12.028 4.89033 12.0278 4.72238 11.9158ZM4.72238 11.9158L5 11.5C5.27735 11.916 5.27785 11.9157 5.27799 11.9156L5.27905 11.9149L5.28238 11.9127L5.29384 11.9049L5.33522 11.8765C5.37074 11.8519 5.42177 11.8161 5.4861 11.7696C5.61473 11.6767 5.79682 11.5411 6.01459 11.3677C6.44933 11.0215 7.03031 10.5214 7.61298 9.90637C8.75787 8.69788 10 6.95097 10 5C10 3.67392 9.47322 2.40215 8.53553 1.46447C7.59785 0.526784 6.32608 0 5 0C3.67392 0 2.40215 0.526784 1.46447 1.46447C0.526784 2.40215 0 3.67392 0 5C0 6.95097 1.24213 8.69788 2.38702 9.90637C2.96969 10.5214 3.55067 11.0215 3.98541 11.3677C4.20318 11.5411 4.38527 11.6767 4.5139 11.7696C4.57823 11.8161 4.62926 11.8519 4.66478 11.8765L4.70616 11.9049L4.71762 11.9127L4.72095 11.9149L4.72238 11.9158ZM4 5C4 4.44772 4.44772 4 5 4C5.55228 4 6 4.44772 6 5C6 5.55228 5.55228 6 5 6C4.44772 6 4 5.55228 4 5ZM5 3C3.89543 3 3 3.89543 3 5C3 6.10457 3.89543 7 5 7C6.10457 7 7 6.10457 7 5C7 3.89543 6.10457 3 5 3Z" fill="#915208"/>
</svg>
