<svg width="22" height="24" viewBox="0 0 22 24" fill="none" xmlns="http://www.w3.org/2000/svg">
<path d="M2.92969 9.17383V13.8613" stroke="white" stroke-width="2" stroke-linecap="round" stroke-linejoin="round"/>
<path d="M4.49219 13.8613H1.36719" stroke="white" stroke-width="2" stroke-linecap="round" stroke-linejoin="round"/>
<path d="M4.49219 6.04883H1.36719" stroke="white" stroke-width="2" stroke-linecap="round" stroke-linejoin="round"/>
<path d="M1.36719 2.40343C1.36719 2.40343 2.92969 0.84092 3.97135 2.40344C5.01302 3.96596 1.36719 6.0493 1.36719 6.0493" stroke="white" stroke-width="2" stroke-linecap="round" stroke-linejoin="round"/>
<path d="M1.36719 17.7676C1.36719 17.7676 2.40886 16.2051 3.97133 17.2467C5.53383 18.2884 3.97139 19.5905 3.97139 19.5905C3.97139 19.5905 5.53383 20.8926 3.97133 21.9343C2.40885 22.9759 1.36719 21.4134 1.36719 21.4134" stroke="white" stroke-width="2" stroke-linecap="round" stroke-linejoin="round"/>
<path d="M3.97135 19.5918H2.92969" stroke="white" stroke-width="2" stroke-linecap="round" stroke-linejoin="round"/>
<path d="M2.92969 9.17383L1.36719 10.2155" stroke="white" stroke-width="2" stroke-linecap="round" stroke-linejoin="round"/>
<path d="M9.17969 12.2988H20.638" stroke="white" stroke-width="2" stroke-linecap="round" stroke-linejoin="round"/>
<path d="M9.17969 19.5918H20.638" stroke="white" stroke-width="2" stroke-linecap="round" stroke-linejoin="round"/>
<path d="M9.17969 5.00781H20.638" stroke="white" stroke-width="2" stroke-linecap="round" stroke-linejoin="round"/>
</svg>
