<svg width="12" height="12" viewBox="0 0 12 12" fill="none" xmlns="http://www.w3.org/2000/svg">
<path fill-rule="evenodd" clip-rule="evenodd" d="M5.00829 1.60869C5.95482 1.39483 6.94512 1.49267 7.8315 1.88762C8.08374 2.00001 8.37933 1.88665 8.49172 1.63441C8.60411 1.38217 8.49074 1.08659 8.2385 0.974195C7.15515 0.49148 5.94478 0.371895 4.7879 0.633275C3.63103 0.894655 2.58964 1.523 1.81905 2.42458C1.04846 3.32617 0.589959 4.45271 0.511922 5.63617C0.433885 6.81963 0.740496 7.99661 1.38603 8.99158C2.03156 9.98655 2.98142 10.7462 4.09396 11.1572C5.20649 11.5682 6.42209 11.6086 7.55945 11.2723C8.69681 10.9361 9.69499 10.2411 10.4051 9.2912C11.1153 8.34127 11.4993 7.18694 11.5 6.00091V5.54091C11.5 5.26477 11.2761 5.04091 11 5.04091C10.7239 5.04091 10.5 5.26477 10.5 5.54091V6.00062C10.4994 6.97101 10.1852 7.91523 9.6042 8.69244C9.02318 9.46966 8.20648 10.0382 7.27591 10.3134C6.34534 10.5885 5.35077 10.5555 4.44051 10.2192C3.53026 9.88289 2.7531 9.26137 2.22493 8.4473C1.69677 7.63324 1.44591 6.67025 1.50976 5.70196C1.5736 4.73368 1.94874 3.81197 2.57923 3.07431C3.20971 2.33664 4.06175 1.82255 5.00829 1.60869ZM11.3537 2.35428C11.5489 2.15892 11.5487 1.84234 11.3534 1.64718C11.158 1.45201 10.8414 1.45217 10.6463 1.64753L5.99982 6.29862L4.85355 5.15235C4.65829 4.95709 4.34171 4.95709 4.14645 5.15235C3.95118 5.34762 3.95118 5.6642 4.14645 5.85946L5.64645 7.35946C5.74025 7.45326 5.86747 7.50594 6.00012 7.50591C6.13278 7.50587 6.25998 7.45313 6.35373 7.35928L11.3537 2.35428Z" fill="#267326"/>
</svg>
