<svg width="22" height="20" viewBox="0 0 22 20" fill="none" xmlns="http://www.w3.org/2000/svg">
<path d="M7.48438 1.40625H20.7656C21.0764 1.40625 21.3745 1.52971 21.5943 1.74948C21.814 1.96925 21.9375 2.26732 21.9375 2.57812C21.9375 2.88893 21.814 3.187 21.5943 3.40677C21.3745 3.62654 21.0764 3.75 20.7656 3.75H7.48438C7.17357 3.75 6.8755 3.62654 6.65573 3.40677C6.43597 3.187 6.3125 2.88893 6.3125 2.57812C6.3125 2.26732 6.43597 1.96925 6.65573 1.74948C6.8755 1.52971 7.17357 1.40625 7.48438 1.40625ZM7.48438 9.21875H20.7656C21.0764 9.21875 21.3745 9.34221 21.5943 9.56198C21.814 9.78175 21.9375 10.0798 21.9375 10.3906C21.9375 10.7014 21.814 10.9995 21.5943 11.2193C21.3745 11.439 21.0764 11.5625 20.7656 11.5625H7.48438C7.17357 11.5625 6.8755 11.439 6.65573 11.2193C6.43597 10.9995 6.3125 10.7014 6.3125 10.3906C6.3125 10.0798 6.43597 9.78175 6.65573 9.56198C6.8755 9.34221 7.17357 9.21875 7.48438 9.21875ZM7.48438 17.0312H20.7656C21.0764 17.0312 21.3745 17.1547 21.5943 17.3745C21.814 17.5943 21.9375 17.8923 21.9375 18.2031C21.9375 18.5139 21.814 18.812 21.5943 19.0318C21.3745 19.2515 21.0764 19.375 20.7656 19.375H7.48438C7.17357 19.375 6.8755 19.2515 6.65573 19.0318C6.43597 18.812 6.3125 18.5139 6.3125 18.2031C6.3125 17.8923 6.43597 17.5943 6.65573 17.3745C6.8755 17.1547 7.17357 17.0312 7.48438 17.0312ZM1.625 19.375C1.2106 19.375 0.813171 19.2104 0.520146 18.9174C0.22712 18.6243 0.0625 18.2269 0.0625 17.8125C0.0625 17.3981 0.22712 17.0007 0.520146 16.7076C0.813171 16.4146 1.2106 16.25 1.625 16.25C2.0394 16.25 2.43683 16.4146 2.72985 16.7076C3.02288 17.0007 3.1875 17.3981 3.1875 17.8125C3.1875 18.2269 3.02288 18.6243 2.72985 18.9174C2.43683 19.2104 2.0394 19.375 1.625 19.375ZM3.1875 10C3.1875 10.4144 3.02288 10.8118 2.72985 11.1049C2.43683 11.3979 2.0394 11.5625 1.625 11.5625C1.2106 11.5625 0.813171 11.3979 0.520146 11.1049C0.22712 10.8118 0.0625 10.4144 0.0625 10C0.0625 9.5856 0.22712 9.18817 0.520146 8.89515C0.813171 8.60212 1.2106 8.4375 1.625 8.4375C2.0394 8.4375 2.43683 8.60212 2.72985 8.89515C3.02288 9.18817 3.1875 9.5856 3.1875 10ZM1.625 3.75C1.2106 3.75 0.813171 3.58538 0.520146 3.29235C0.22712 2.99933 0.0625 2.6019 0.0625 2.1875C0.0625 1.7731 0.22712 1.37567 0.520146 1.08265C0.813171 0.78962 1.2106 0.625 1.625 0.625C2.0394 0.625 2.43683 0.78962 2.72985 1.08265C3.02288 1.37567 3.1875 1.7731 3.1875 2.1875C3.1875 2.6019 3.02288 2.99933 2.72985 3.29235C2.43683 3.58538 2.0394 3.75 1.625 3.75Z" fill="white"/>
</svg>
