<svg width="22" height="18" viewBox="0 0 22 18" fill="none" xmlns="http://www.w3.org/2000/svg">
<path d="M5.48624 0.45147C5.2909 0.256188 5.02599 0.146484 4.74978 0.146484C4.47357 0.146484 4.20866 0.256188 4.01332 0.45147L2.66645 1.79835L2.36124 1.49314C2.16478 1.30339 1.90165 1.19839 1.62853 1.20077C1.35541 1.20314 1.09414 1.31269 0.90101 1.50583C0.707877 1.69896 0.598326 1.96022 0.595952 2.23334C0.593579 2.50647 0.698573 2.76959 0.888321 2.96605L1.92999 4.00772C2.12533 4.203 2.39023 4.31271 2.66645 4.31271C2.94266 4.31271 3.20756 4.203 3.4029 4.00772L5.48624 1.92439C5.68152 1.72905 5.79122 1.46414 5.79122 1.18793C5.79122 0.911716 5.68152 0.646812 5.48624 0.45147ZM20.3779 14.7223H8.91644L8.79457 14.7296C8.53093 14.761 8.28921 14.8918 8.1188 15.0954C7.9484 15.299 7.86216 15.56 7.87772 15.825C7.89328 16.0901 8.00946 16.3392 8.20252 16.5214C8.39558 16.7037 8.65095 16.8053 8.91644 16.8056H20.3779L20.4998 16.7994C20.7653 16.7702 21.0095 16.6402 21.1819 16.4361C21.3543 16.2321 21.4417 15.9696 21.426 15.7029C21.4104 15.4363 21.2929 15.1858 21.0978 15.0033C20.9027 14.8208 20.645 14.7202 20.3779 14.7223ZM20.3779 8.4796H8.91644L8.79457 8.48689C8.53093 8.51824 8.28921 8.64909 8.1188 8.85269C7.9484 9.05628 7.86216 9.31727 7.87772 9.58231C7.89328 9.84735 8.00946 10.0965 8.20252 10.2787C8.39558 10.461 8.65095 10.5626 8.91644 10.5629H20.3779L20.4998 10.5556C20.7634 10.5243 21.0051 10.3934 21.1755 10.1898C21.346 9.98624 21.4322 9.72526 21.4166 9.46021C21.4011 9.19517 21.2849 8.94607 21.0918 8.76381C20.8988 8.58155 20.6434 8.47989 20.3779 8.4796ZM20.3779 2.2296H8.91644L8.79457 2.23689C8.53093 2.26824 8.28921 2.39909 8.1188 2.60269C7.9484 2.80628 7.86216 3.06727 7.87772 3.33231C7.89328 3.59735 8.00946 3.84645 8.20252 4.02871C8.39558 4.21097 8.65095 4.31263 8.91644 4.31293H20.3779L20.4998 4.30564C20.7634 4.27428 21.0051 4.14343 21.1755 3.93984C21.346 3.73624 21.4322 3.47526 21.4166 3.21021C21.4011 2.94517 21.2849 2.69607 21.0918 2.51381C20.8988 2.33155 20.6434 2.22989 20.3779 2.2296ZM5.48624 13.9931C5.2909 13.7979 5.02599 13.6882 4.74978 13.6882C4.47357 13.6882 4.20866 13.7979 4.01332 13.9931L2.66645 15.34L2.36124 15.0348C2.16478 14.8451 1.90165 14.7401 1.62853 14.7424C1.35541 14.7448 1.09414 14.8544 0.90101 15.0475C0.707877 15.2406 0.598326 15.5019 0.595952 15.775C0.593579 16.0481 0.698573 16.3113 0.888321 16.5077L1.92999 17.5494C2.12533 17.7447 2.39023 17.8544 2.66645 17.8544C2.94266 17.8544 3.20756 17.7447 3.4029 17.5494L5.48624 15.4661C5.68152 15.2707 5.79122 15.0058 5.79122 14.7296C5.79122 14.4534 5.68152 14.1885 5.48624 13.9931ZM4.01332 7.2223C4.20978 7.03256 4.47291 6.92756 4.74603 6.92993C5.01915 6.93231 5.28041 7.04186 5.47355 7.23499C5.66668 7.42813 5.77623 7.68939 5.77861 7.96251C5.78098 8.23563 5.67598 8.49876 5.48624 8.69522L3.4029 10.7786C3.20756 10.9738 2.94266 11.0835 2.66645 11.0835C2.39023 11.0835 2.12533 10.9738 1.92999 10.7786L0.888321 9.73689C0.788831 9.6408 0.709475 9.52585 0.654882 9.39877C0.600289 9.27168 0.571554 9.13499 0.570352 8.99668C0.56915 8.85837 0.595506 8.7212 0.647882 8.59318C0.700258 8.46517 0.777605 8.34886 0.87541 8.25106C0.973214 8.15325 1.08952 8.07591 1.21754 8.02353C1.34555 7.97116 1.48272 7.9448 1.62103 7.946C1.75934 7.9472 1.89603 7.97594 2.02312 8.03053C2.1502 8.08512 2.26515 8.16448 2.36124 8.26397L2.66645 8.56918L4.01332 7.2223Z" fill="white"/>
</svg>
