<svg width="21" height="20" viewBox="0 0 21 20" fill="grey" xmlns="http://www.w3.org/2000/svg">
<g id="Trash">
<path id="Vector" d="M8.83398 1.66406L8.00065 2.4974H3.83398V4.16406H4.66732V16.6641C4.66732 17.0992 4.82676 17.5429 5.14095 17.8571C5.45514 18.1713 5.8988 18.3307 6.33398 18.3307H14.6673C15.1025 18.3307 15.5462 18.1713 15.8604 17.8571C16.1745 17.5429 16.334 17.0992 16.334 16.6641V4.16406H17.1673V2.4974H13.0007L12.1673 1.66406H8.83398ZM6.33398 4.16406H14.6673V16.6641H6.33398V4.16406ZM8.00065 5.83073V14.9974H9.66732V5.83073H8.00065ZM11.334 5.83073V14.9974H13.0007V5.83073H11.334Z" fill="grey"/>
</g>
</svg>
